<svg id="footer_wh" width="40" height="40" viewBox="0 0 40 40" fill="none" xmlns="http://www.w3.org/2000/svg">
<rect x="0.5" y="0.5" width="39" height="39" rx="19.5" stroke="white"/>
<path fill-rule="evenodd" clip-rule="evenodd" d="M26.05 13.8501C24.45 12.2501 22.35 11.3501 20.05 11.3501C15.25 11.3501 11.45 15.1501 11.45 19.9501C11.45 21.4501 11.85 22.9501 12.55 24.2501L11.35 28.6501L15.95 27.4501C17.25 28.1501 18.65 28.4501 20.05 28.4501C24.75 28.4501 28.65 24.6501 28.65 19.8501C28.65 17.6501 27.75 15.4501 26.05 13.8501ZM20.05 27.0501C18.75 27.0501 17.55 26.7501 16.45 26.0501L16.15 25.8501L13.45 26.5501L14.15 23.9501L13.95 23.6501C13.25 22.5501 12.85 21.2501 12.85 19.8501C12.85 15.9501 16.05 12.7501 19.95 12.7501C21.85 12.7501 23.65 13.4501 24.95 14.8501C26.25 16.1501 27.05 17.9501 27.05 19.8501C27.15 23.8501 23.95 27.0501 20.05 27.0501ZM23.95 21.6501C23.75 21.5501 22.65 21.0501 22.45 20.9501C22.25 20.8501 22.15 20.8501 21.95 21.0501C21.85 21.2501 21.35 21.7501 21.25 21.8501C21.15 21.9501 20.95 22.0501 20.75 21.9501C20.55 21.8501 19.85 21.6501 19.05 20.8501C18.45 20.3501 18.05 19.6501 17.95 19.4501C17.85 19.2501 17.95 19.1501 18.05 19.0501C18.25 18.7501 18.55 18.4501 18.55 18.3501C18.65 18.2501 18.55 18.0501 18.55 17.9501C18.45 17.8501 18.05 16.7501 17.85 16.3501C17.65 15.9501 17.55 15.9501 17.35 15.9501C17.25 15.9501 17.05 15.9501 16.95 15.9501C16.85 15.9501 16.55 16.0501 16.35 16.2501C16.25 16.4501 15.65 16.9501 15.65 18.0501C15.65 19.1501 16.45 20.1501 16.55 20.2501C16.65 20.3501 18.05 22.5501 20.25 23.4501C20.75 23.6501 21.15 23.8501 21.45 23.9501C21.95 24.1501 22.45 24.0501 22.85 24.0501C23.25 23.9501 24.15 23.5501 24.25 23.0501C24.45 22.5501 24.45 22.1501 24.35 22.0501C24.25 21.8501 24.15 21.8501 23.95 21.6501Z" fill="white"/>
</svg>
