<svg id="footer_post" width="40" height="40" viewBox="0 0 40 40" fill="none" xmlns="http://www.w3.org/2000/svg">
<rect x="0.5" y="0.5" width="39" height="39" rx="19.5" stroke="white"/>
<g clip-path="url(#clip0_39_2736)">
<path fill-rule="evenodd" clip-rule="evenodd" d="M23.65 20.5998C24.45 20.0998 25.35 19.3998 26.45 18.6998C26.75 18.4998 27.05 18.2998 27.25 17.9998V24.2998L23.65 20.5998ZM25.95 17.7998C24.65 18.6998 23.65 19.3998 22.95 19.8998C22.55 20.0998 22.25 20.2998 22.05 20.4998C22.05 20.4998 21.95 20.4998 21.95 20.5998C21.85 20.5998 21.85 20.6998 21.75 20.7998C21.55 20.7998 21.45 20.8998 21.35 20.9998C21.15 21.0998 21.05 21.1998 20.85 21.2998C20.75 21.3998 20.55 21.3998 20.45 21.4998C20.35 21.4998 20.15 21.5998 20.05 21.5998C19.95 21.5998 19.75 21.5998 19.65 21.4998C19.45 21.3998 19.25 21.3998 19.15 21.2998C18.95 21.1998 18.75 21.0998 18.65 20.9998C18.55 20.8998 18.45 20.7998 18.25 20.6998C18.15 20.5998 18.05 20.5998 18.05 20.4998C17.95 20.4998 17.95 20.3998 17.95 20.3998C17.65 20.2998 17.35 20.0998 17.05 19.8998C16.65 19.5998 16.25 19.2998 15.75 18.9998C14.85 18.2998 14.25 17.9998 14.05 17.7998C13.75 17.5998 13.45 17.2998 13.15 16.8998C12.85 16.4998 12.65 16.0998 12.65 15.7998C12.65 15.3998 12.75 14.9998 12.95 14.6998C13.25 14.3998 13.55 14.2998 13.95 14.2998H26.05C26.45 14.2998 26.75 14.3998 26.95 14.6998C27.25 14.9998 27.35 15.2998 27.35 15.5998C27.35 15.9998 27.25 16.3998 26.95 16.7998C26.65 17.1998 26.35 17.4998 25.95 17.7998ZM16.35 20.5998L12.65 24.1998V17.9998C12.85 18.2998 13.15 18.4998 13.45 18.6998C14.65 19.4998 15.55 20.0998 16.35 20.5998ZM17.55 21.4998C17.85 21.6998 18.15 21.8998 18.35 21.9998C18.55 22.0998 18.75 22.2998 19.05 22.3998C19.35 22.4998 19.65 22.5998 19.95 22.5998C20.25 22.5998 20.55 22.4998 20.85 22.3998C21.25 22.2998 21.45 22.0998 21.65 21.9998C21.85 21.8998 22.05 21.6998 22.45 21.4998C22.55 21.3998 22.65 21.3998 22.75 21.2998L26.95 25.3998C26.75 25.5998 26.45 25.6998 26.05 25.6998H13.95C13.65 25.6998 13.35 25.5998 13.05 25.3998L17.25 21.2998C17.35 21.3998 17.45 21.3998 17.55 21.4998Z" fill="white"/>
</g>
<defs>
<clipPath id="clip0_39_2736">
<rect width="14.7" height="11.4" fill="white" transform="translate(12.65 14.2998)"/>
</clipPath>
</defs>
</svg>
