<svg id="footer_tel" width="40" height="40" viewBox="0 0 40 40" fill="none" xmlns="http://www.w3.org/2000/svg">
<rect x="0.5" y="0.5" width="39" height="39" rx="19.5" stroke="white"/>
<g clip-path="url(#clip0_39_2738)">
<path fill-rule="evenodd" clip-rule="evenodd" d="M12.15 19.6499L15.85 21.0499L17.35 25.6499C17.45 25.9499 17.85 26.0499 18.05 25.8499L20.15 24.1499C20.35 23.9499 20.65 23.9499 20.95 24.1499L24.75 26.8499C25.05 27.0499 25.35 26.8499 25.45 26.5499L28.25 13.5499C28.25 13.2499 27.85 12.9499 27.55 13.0499L12.15 18.8499C11.75 19.0499 11.75 19.5499 12.15 19.6499ZM17.15 20.3499L24.55 15.9499C24.65 15.8499 24.85 16.0499 24.75 16.1499L18.55 21.6499C18.35 21.8499 18.25 22.0499 18.15 22.3499L17.95 23.8499C17.95 24.0499 17.65 24.0499 17.55 23.8499L16.75 21.1499C16.75 20.8499 16.85 20.5499 17.15 20.3499Z" fill="white"/>
</g>
<defs>
<clipPath id="clip0_39_2738">
<rect width="16.3" height="13.9" fill="white" transform="translate(11.85 13.0498)"/>
</clipPath>
</defs>
</svg>
