<svg id="footer_logo" width="230" height="51" viewBox="0 0 230 51" fill="none" xmlns="http://www.w3.org/2000/svg">
<g clip-path="url(#clip0_33_7)">
<path d="M38.0933 0V0.080315C38.0933 2.40945 37.453 4.57795 36.4127 6.4252C34.2519 10.2 30.0905 12.7701 25.4489 12.7701V25.4598C27.6896 25.4598 38.0933 24.2551 38.0933 17.2677V25.4598V38.2299V51H50.8177V38.2299V25.4598V12.7701V0H38.0933Z" fill="#B02A1F"/>
<path d="M12.7244 25.4598V12.7701H25.3688V0H12.7244H0V12.7701V25.4598V38.2299V51H12.7244H25.3688V38.2299H12.7244V25.4598Z" fill="#B02A1F"/>
<path d="M69.6242 30.7606C69.3841 30.7606 69.2241 30.6803 69.1441 30.6C68.984 30.4394 68.984 30.2787 68.984 30.1181V11.726C68.984 11.485 69.064 11.3244 69.1441 11.2441C69.3041 11.0835 69.4642 11.0835 69.6242 11.0835H85.1496C85.3897 11.0835 85.5498 11.1638 85.6298 11.2441C85.7898 11.4047 85.7898 11.5654 85.7898 11.726V30.0378C85.7898 30.2787 85.7098 30.4394 85.6298 30.5197C85.4697 30.6803 85.3097 30.6803 85.1496 30.6803H81.5484C81.3083 30.6803 81.1482 30.6 81.0682 30.5197C80.9081 30.3591 80.9081 30.1984 80.9081 30.0378V15.5811H74.0257V30.0378C74.0257 30.2787 73.9457 30.4394 73.8657 30.5197C73.7056 30.6803 73.5456 30.6803 73.3855 30.6803H69.6242V30.7606Z" fill="#B02A1F"/>
<path d="M97.794 31.0016C96.1134 31.0016 94.5929 30.6803 93.3125 30.1181C92.032 29.5559 91.0717 28.6724 90.3514 27.548C89.6312 26.4236 89.231 24.978 89.151 23.2913C89.151 22.4882 89.151 21.685 89.151 20.8819C89.151 20.0787 89.151 19.2756 89.151 18.4724C89.231 16.7858 89.6312 15.3402 90.3514 14.2158C91.0717 13.0913 92.032 12.2079 93.3125 11.6457C94.5929 11.0835 96.0334 10.7622 97.794 10.7622C99.4746 10.7622 100.915 11.0835 102.196 11.6457C103.476 12.2079 104.516 13.0913 105.237 14.2158C105.957 15.3402 106.357 16.7858 106.437 18.4724C106.437 19.2756 106.517 20.0787 106.517 20.8819C106.517 21.685 106.517 22.4882 106.437 23.2913C106.357 24.978 105.957 26.4236 105.237 27.548C104.516 28.6724 103.556 29.5559 102.276 30.1181C100.995 30.7606 99.5546 31.0016 97.794 31.0016ZM97.794 26.9858C98.7544 26.9858 99.5546 26.6646 100.195 26.1024C100.835 25.5402 101.155 24.5764 101.155 23.211C101.155 22.4079 101.235 21.6047 101.235 20.8819C101.235 20.1591 101.235 19.3559 101.155 18.6331C101.155 17.7496 100.915 17.0268 100.675 16.4646C100.355 15.9024 99.9548 15.5008 99.4746 15.2598C98.9944 15.0189 98.3542 14.8583 97.714 14.8583C97.0738 14.8583 96.5136 15.0189 96.0334 15.2598C95.5532 15.5008 95.1531 15.9024 94.833 16.4646C94.5129 17.0268 94.3528 17.7496 94.3528 18.6331C94.3528 19.4362 94.3528 20.1591 94.3528 20.8819C94.3528 21.6047 94.3528 22.4079 94.3528 23.211C94.4329 24.4961 94.753 25.4598 95.3932 26.1024C96.0334 26.6646 96.8337 26.9858 97.794 26.9858Z" fill="#B02A1F"/>
<path d="M109.078 30.7606C108.918 30.7606 108.758 30.6803 108.598 30.6C108.438 30.4394 108.438 30.3591 108.438 30.1181C108.438 29.9575 108.438 29.8772 108.518 29.7969L114.2 20.5606L108.998 12.0473C108.918 11.9669 108.918 11.8063 108.918 11.726C108.918 11.5654 108.998 11.4047 109.078 11.3244C109.158 11.1638 109.318 11.1638 109.478 11.1638H113.479C113.8 11.1638 113.96 11.2441 114.12 11.3244C114.28 11.4047 114.44 11.5654 114.52 11.726L118.681 18.7134H120.282V11.8866C120.282 11.6457 120.362 11.485 120.442 11.4047C120.602 11.2441 120.762 11.2441 120.922 11.2441H124.363C124.603 11.2441 124.763 11.3244 124.843 11.4047C125.003 11.5654 125.003 11.726 125.003 11.8866V18.7134H126.604L130.765 11.726C130.846 11.5654 131.006 11.485 131.166 11.3244C131.326 11.2441 131.566 11.1638 131.806 11.1638H135.807C135.967 11.1638 136.127 11.2441 136.287 11.3244C136.367 11.485 136.447 11.5654 136.447 11.726C136.447 11.8063 136.447 11.9669 136.367 12.0473L131.246 20.5606L136.928 29.7969C137.008 29.8772 137.008 29.9575 137.008 30.1181C137.008 30.2787 136.928 30.4394 136.848 30.6C136.688 30.7606 136.608 30.7606 136.367 30.7606H132.206C131.966 30.7606 131.726 30.6803 131.566 30.6C131.406 30.4394 131.326 30.3591 131.246 30.2787L126.924 23.1307H125.164V30.1181C125.164 30.3591 125.084 30.5197 125.003 30.6C124.843 30.7606 124.683 30.7606 124.523 30.7606H121.082C120.842 30.7606 120.682 30.6803 120.602 30.6C120.442 30.4394 120.442 30.2787 120.442 30.1181V23.1307H118.601L114.28 30.2787C114.2 30.3591 114.12 30.5197 113.96 30.6C113.8 30.7606 113.64 30.7606 113.319 30.7606H109.078Z" fill="#B02A1F"/>
<path d="M147.731 31.0016C146.051 31.0016 144.53 30.6803 143.25 30.1181C141.969 29.5559 141.009 28.6724 140.289 27.548C139.569 26.4236 139.168 24.978 139.088 23.2913C139.088 22.4882 139.088 21.685 139.088 20.8819C139.088 20.0787 139.088 19.2756 139.088 18.4724C139.168 16.7858 139.569 15.3402 140.289 14.2158C141.009 13.0913 141.969 12.2079 143.25 11.6457C144.53 11.0835 145.971 10.7622 147.731 10.7622C149.412 10.7622 150.852 11.0835 152.133 11.6457C153.413 12.2079 154.454 13.0913 155.174 14.2158C155.894 15.3402 156.294 16.7858 156.374 18.4724C156.374 19.2756 156.454 20.0787 156.454 20.8819C156.454 21.685 156.454 22.4882 156.374 23.2913C156.294 24.978 155.894 26.4236 155.174 27.548C154.454 28.6724 153.493 29.5559 152.213 30.1181C150.932 30.7606 149.412 31.0016 147.731 31.0016ZM147.731 26.9858C148.692 26.9858 149.492 26.6646 150.132 26.1024C150.772 25.5402 151.093 24.5764 151.093 23.211C151.093 22.4079 151.173 21.6047 151.173 20.8819C151.173 20.1591 151.173 19.3559 151.093 18.6331C151.093 17.7496 150.852 17.0268 150.612 16.4646C150.292 15.9024 149.892 15.5008 149.412 15.2598C148.932 15.0189 148.292 14.8583 147.651 14.8583C147.011 14.8583 146.451 15.0189 145.971 15.2598C145.491 15.5008 145.09 15.9024 144.77 16.4646C144.45 17.0268 144.29 17.7496 144.29 18.6331C144.29 19.4362 144.29 20.1591 144.29 20.8819C144.29 21.6047 144.29 22.4079 144.29 23.211C144.37 24.4961 144.69 25.4598 145.331 26.1024C145.891 26.6646 146.691 26.9858 147.731 26.9858Z" fill="#B02A1F"/>
<path d="M164.617 30.7606C164.377 30.7606 164.217 30.6803 164.137 30.6C163.977 30.4394 163.977 30.2787 163.977 30.1181V15.5008H159.015C158.775 15.5008 158.615 15.4205 158.535 15.2599C158.375 15.0992 158.375 14.9386 158.375 14.778V11.8063C158.375 11.5654 158.455 11.4047 158.535 11.3244C158.695 11.1638 158.855 11.1638 159.015 11.1638H174.061C174.301 11.1638 174.461 11.2441 174.541 11.3244C174.701 11.485 174.701 11.6457 174.701 11.8063V14.778C174.701 14.9386 174.621 15.0992 174.541 15.2599C174.381 15.4205 174.221 15.5008 174.061 15.5008H169.099V30.0378C169.099 30.2787 169.019 30.4394 168.939 30.5197C168.779 30.6803 168.619 30.6803 168.459 30.6803H164.617V30.7606Z" fill="#B02A1F"/>
<path d="M177.982 30.7606C177.742 30.7606 177.582 30.6803 177.502 30.6C177.342 30.4394 177.342 30.2787 177.342 30.1181V11.726C177.342 11.485 177.422 11.3244 177.502 11.2441C177.662 11.0835 177.822 11.0835 177.982 11.0835H186.545C188.145 11.0835 189.506 11.3244 190.466 11.726C191.427 12.1276 192.227 12.8504 192.787 13.6535C193.267 14.4567 193.507 15.5008 193.507 16.6252C193.507 17.2677 193.347 17.9102 193.107 18.3921C192.867 18.874 192.547 19.3559 192.147 19.6772C191.747 19.9984 191.427 20.2394 191.106 20.4C191.827 20.7213 192.467 21.2835 193.027 22.0866C193.587 22.8898 193.827 23.7732 193.827 24.8173C193.827 26.022 193.587 27.1465 193.027 28.0299C192.467 28.9134 191.667 29.6362 190.626 30.1181C189.586 30.6 188.306 30.8409 186.785 30.8409H177.982V30.7606ZM182.303 18.874H185.985C186.785 18.874 187.345 18.7134 187.745 18.3118C188.145 17.9102 188.306 17.4283 188.306 16.7858C188.306 16.2236 188.145 15.6614 187.745 15.3402C187.345 14.9386 186.785 14.778 185.985 14.778H182.303V18.874ZM182.303 27.0661H186.225C187.025 27.0661 187.665 26.8252 188.065 26.3433C188.466 25.8614 188.706 25.3795 188.706 24.737C188.706 24.0945 188.466 23.5323 188.065 23.0504C187.665 22.5685 187.025 22.4079 186.225 22.4079H182.303V27.0661Z" fill="#B02A1F"/>
<path d="M197.669 30.7606C197.429 30.7606 197.269 30.6803 197.189 30.6C197.029 30.4394 197.029 30.2787 197.029 30.1181V11.726C197.029 11.485 197.109 11.3244 197.189 11.2441C197.349 11.0835 197.509 11.0835 197.669 11.0835H210.713C210.953 11.0835 211.113 11.1638 211.193 11.2441C211.354 11.4047 211.354 11.5654 211.354 11.726V14.3764C211.354 14.6173 211.273 14.778 211.193 14.8583C211.033 15.0189 210.873 15.0189 210.713 15.0189H201.75V18.7937H210.073C210.313 18.7937 210.473 18.874 210.553 19.0346C210.713 19.1953 210.713 19.3559 210.713 19.5165V21.926C210.713 22.0866 210.633 22.2472 210.553 22.4079C210.393 22.5685 210.233 22.6488 210.073 22.6488H201.75V26.5843H210.873C211.113 26.5843 211.273 26.6646 211.354 26.7449C211.514 26.9055 211.514 27.0661 211.514 27.2268V29.8772C211.514 30.1181 211.434 30.2787 211.354 30.3591C211.193 30.5197 211.033 30.5197 210.873 30.5197H197.669V30.7606Z" fill="#B02A1F"/>
<path d="M219.916 30.7606C219.676 30.7606 219.516 30.6803 219.436 30.6C219.276 30.4394 219.276 30.2787 219.276 30.1181V15.5008H214.315C214.074 15.5008 213.914 15.4205 213.834 15.2599C213.674 15.0992 213.674 14.9386 213.674 14.778V11.8063C213.674 11.5654 213.754 11.4047 213.834 11.3244C213.994 11.1638 214.154 11.1638 214.315 11.1638H229.36C229.6 11.1638 229.76 11.2441 229.84 11.3244C230 11.485 230 11.6457 230 11.8063V14.778C230 14.9386 229.92 15.0992 229.84 15.2599C229.68 15.4205 229.52 15.5008 229.36 15.5008H224.398V30.0378C224.398 30.2787 224.318 30.4394 224.238 30.5197C224.078 30.6803 223.918 30.6803 223.758 30.6803H219.916V30.7606Z" fill="#B02A1F"/>
<path d="M71.6249 46.5827C71.0647 46.5827 70.5845 46.5023 70.1844 46.2614C69.7843 46.0205 69.3841 45.6992 69.1441 45.2976C68.904 44.896 68.7439 44.4142 68.7439 43.852C68.7439 43.2897 68.904 42.8079 69.1441 42.4063C69.3841 42.0047 69.7042 41.6834 70.1844 41.4425C70.5845 41.2016 71.0647 41.1212 71.6249 41.1212C72.1051 41.1212 72.5052 41.2016 72.9054 41.4425C73.3055 41.6031 73.5456 41.9244 73.7857 42.326L73.0654 42.8079C72.9054 42.5669 72.6653 42.326 72.4252 42.2457C72.1851 42.085 71.865 42.085 71.6249 42.085C71.3048 42.085 70.9847 42.1653 70.6646 42.326C70.3445 42.4866 70.1844 42.7275 70.0244 42.9685C69.8643 43.2094 69.7843 43.611 69.7843 43.9323C69.7843 44.2535 69.8643 44.6551 70.0244 44.896C70.1844 45.2173 70.4245 45.3779 70.6646 45.5386C70.9047 45.6992 71.2248 45.7795 71.6249 45.7795C71.945 45.7795 72.1851 45.6992 72.4252 45.6189C72.6653 45.4583 72.9054 45.2976 73.0654 45.0567L73.7857 45.5386C73.5456 45.9401 73.3055 46.1811 72.9054 46.422C72.5052 46.5023 72.1051 46.5827 71.6249 46.5827Z" fill="#B02A1F"/>
<path d="M77.0668 46.5023V41.1212H78.0271V45.0567L81.3083 41.1212H82.1886V46.5023H81.2283V42.5669L77.9471 46.5023H77.0668Z" fill="#B02A1F"/>
<path d="M88.4308 46.5827C87.8706 46.5827 87.3904 46.5023 86.9903 46.2614C86.5901 46.0205 86.19 45.6992 85.9499 45.2976C85.7098 44.896 85.5498 44.4142 85.5498 43.852C85.5498 43.2897 85.7098 42.8079 85.9499 42.4063C86.19 42.0047 86.5101 41.6834 86.9903 41.4425C87.3904 41.2016 87.8706 41.1212 88.4308 41.1212C88.9109 41.1212 89.3111 41.2016 89.7112 41.4425C90.1113 41.6031 90.3514 41.9244 90.5915 42.326L89.8713 42.8079C89.7112 42.5669 89.4711 42.326 89.231 42.2457C88.991 42.085 88.6708 42.085 88.4308 42.085C88.1106 42.085 87.7905 42.1653 87.4704 42.326C87.1503 42.4866 86.9903 42.7275 86.8302 42.9685C86.6701 43.2094 86.5901 43.611 86.5901 43.9323C86.5901 44.2535 86.6701 44.6551 86.8302 44.896C86.9903 45.2173 87.2303 45.3779 87.4704 45.5386C87.7105 45.6992 88.0306 45.7795 88.4308 45.7795C88.7509 45.7795 88.991 45.6992 89.231 45.6189C89.4711 45.4583 89.7112 45.2976 89.8713 45.0567L90.5915 45.5386C90.3514 45.9401 90.1113 46.1811 89.7112 46.422C89.3111 46.5023 88.9109 46.5827 88.4308 46.5827Z" fill="#B02A1F"/>
<path d="M94.753 46.5023V41.7638L94.993 42.0047H92.8323V41.1212H97.714V42.0047H95.5532L95.7933 41.7638V46.5023H94.753Z" fill="#B02A1F"/>
<path d="M102.836 46.5827C102.276 46.5827 101.795 46.5023 101.315 46.2614C100.915 46.0205 100.515 45.6992 100.275 45.2976C100.035 44.896 99.9548 44.4142 99.9548 43.852C99.9548 43.2897 100.035 42.8079 100.275 42.4063C100.515 42.0047 100.835 41.6834 101.235 41.4425C101.635 41.2016 102.116 41.1212 102.596 41.1212C103.076 41.1212 103.556 41.2016 103.956 41.4425C104.356 41.6834 104.676 42.0047 104.917 42.4063C105.157 42.8079 105.237 43.2897 105.237 43.852C105.237 43.9323 105.237 43.9323 105.237 44.0126C105.237 44.0929 105.237 44.0929 105.237 44.1732H100.675V43.4504H104.756L104.356 43.6913C104.356 43.3701 104.276 43.0488 104.116 42.8079C103.956 42.5669 103.796 42.326 103.476 42.1653C103.156 42.0047 102.916 41.9244 102.596 41.9244C102.276 41.9244 101.955 42.0047 101.715 42.1653C101.475 42.326 101.235 42.5669 101.075 42.8079C100.915 43.0488 100.835 43.3701 100.835 43.7716V43.9323C100.835 44.2535 100.915 44.5748 101.075 44.896C101.235 45.2173 101.475 45.3779 101.795 45.5386C102.116 45.6992 102.436 45.7795 102.836 45.7795C103.156 45.7795 103.476 45.6992 103.716 45.6189C103.956 45.5386 104.196 45.3779 104.436 45.137L104.997 45.7795C104.756 46.1008 104.436 46.2614 104.116 46.422C103.636 46.5023 103.236 46.5827 102.836 46.5827Z" fill="#B02A1F"/>
<path d="M108.838 46.5023V41.1212H109.798L112.119 45.0567H111.719L114.04 41.1212H114.92V46.5023H114.04V42.2457L114.2 42.326L112.039 45.8598H111.639L109.478 42.2457L109.638 42.1653V46.422H108.838V46.5023Z" fill="#B02A1F"/>
<path d="M121.082 46.5827H118.841V41.2016H119.802V43.0488H121.242C121.882 43.0488 122.443 43.2094 122.763 43.5307C123.083 43.852 123.323 44.2535 123.323 44.8157C123.323 45.3779 123.163 45.8598 122.763 46.1811C122.363 46.422 121.802 46.5827 121.082 46.5827ZM121.082 45.7795C121.482 45.7795 121.802 45.6992 122.042 45.5386C122.283 45.3779 122.363 45.0567 122.363 44.7354C122.363 44.4142 122.283 44.0929 122.042 43.9323C121.802 43.7716 121.482 43.6913 121.082 43.6913H119.882V45.7795H121.082ZM124.123 46.5023V41.1212H125.084V46.5023H124.123Z" fill="#B02A1F"/>
<path d="M136.207 46.5827C135.727 46.5827 135.407 46.5024 135.007 46.3417C134.687 46.1811 134.367 46.0205 134.127 45.6992C133.887 45.4583 133.727 45.0567 133.566 44.6551C133.406 44.2535 133.406 43.6913 133.406 43.1291C133.406 42.6472 133.486 42.2457 133.566 41.9244C133.646 41.6031 133.727 41.2016 133.887 40.9606C134.047 40.6394 134.207 40.3984 134.447 40.2378C134.687 39.9968 134.927 39.8362 135.247 39.7559C135.567 39.5953 135.887 39.515 136.207 39.4346L138.608 38.8724L138.768 39.7559L136.527 40.2378C136.367 40.2378 136.207 40.3181 136.047 40.3984C135.887 40.4787 135.647 40.559 135.487 40.6394C135.327 40.7197 135.087 40.8803 134.927 41.1213C134.767 41.3622 134.607 41.6031 134.527 41.9244C134.447 42.2457 134.367 42.6472 134.367 43.0488C134.367 43.2094 134.367 43.2898 134.367 43.3701C134.367 43.4504 134.367 43.5307 134.367 43.611C134.367 43.6913 134.367 43.7716 134.367 43.9323L133.967 43.5307C134.047 43.1291 134.207 42.8079 134.447 42.5669C134.687 42.326 134.927 42.085 135.327 41.9244C135.647 41.7638 136.047 41.6835 136.447 41.6835C136.928 41.6835 137.408 41.7638 137.808 42.0047C138.208 42.2457 138.528 42.4866 138.688 42.8882C138.928 43.2898 139.008 43.6913 139.008 44.1732C139.008 44.6551 138.928 45.137 138.688 45.4583C138.448 45.8598 138.128 46.1811 137.728 46.3417C137.328 46.5024 136.768 46.5827 136.207 46.5827ZM136.287 45.7795C136.608 45.7795 136.928 45.6992 137.168 45.5386C137.408 45.3779 137.648 45.2173 137.808 44.8961C137.968 44.6551 138.048 44.3339 138.048 44.0126C138.048 43.6913 137.968 43.3701 137.808 43.1291C137.648 42.8882 137.488 42.6472 137.168 42.5669C136.928 42.4063 136.608 42.326 136.207 42.326C135.887 42.326 135.567 42.4063 135.327 42.5669C135.087 42.7276 134.847 42.8882 134.687 43.1291C134.527 43.3701 134.447 43.6913 134.447 44.0126C134.447 44.3339 134.527 44.6551 134.687 44.8961C134.847 45.137 135.007 45.3779 135.327 45.5386C135.647 45.6992 135.967 45.7795 136.287 45.7795Z" fill="#B02A1F"/>
<path d="M144.85 46.5827C144.29 46.5827 143.81 46.5023 143.33 46.2614C142.93 46.0205 142.53 45.6992 142.29 45.2976C142.049 44.896 141.969 44.4142 141.969 43.852C141.969 43.2897 142.049 42.8079 142.29 42.4063C142.53 42.0047 142.85 41.6834 143.25 41.4425C143.65 41.2016 144.13 41.1212 144.61 41.1212C145.09 41.1212 145.571 41.2016 145.971 41.4425C146.371 41.6834 146.691 42.0047 146.931 42.4063C147.171 42.8079 147.251 43.2897 147.251 43.852C147.251 43.9323 147.251 43.9323 147.251 44.0126C147.251 44.0929 147.251 44.0929 147.251 44.1732H142.69V43.4504H146.771L146.371 43.6913C146.371 43.3701 146.291 43.0488 146.131 42.8079C145.971 42.5669 145.811 42.326 145.491 42.1653C145.171 42.0047 144.93 41.9244 144.61 41.9244C144.29 41.9244 143.97 42.0047 143.73 42.1653C143.49 42.326 143.25 42.5669 143.09 42.8079C142.93 43.0488 142.85 43.3701 142.85 43.7716V43.9323C142.85 44.2535 142.93 44.5748 143.09 44.896C143.25 45.2173 143.49 45.3779 143.81 45.5386C144.13 45.6992 144.45 45.7795 144.85 45.7795C145.171 45.7795 145.491 45.6992 145.731 45.6189C145.971 45.5386 146.211 45.3779 146.451 45.137L147.011 45.7795C146.771 46.1008 146.451 46.2614 146.131 46.422C145.651 46.5023 145.251 46.5827 144.85 46.5827Z" fill="#B02A1F"/>
<path d="M152.373 46.5827C151.973 46.5827 151.573 46.5023 151.173 46.422C150.772 46.3417 150.452 46.1811 150.132 45.9401L150.452 45.2173C150.692 45.3779 151.013 45.5386 151.333 45.6189C151.653 45.6992 151.973 45.7795 152.293 45.7795C152.613 45.7795 152.853 45.7795 153.093 45.6992C153.333 45.6189 153.493 45.5386 153.573 45.3779C153.653 45.2173 153.733 45.0567 153.733 44.896C153.733 44.6551 153.653 44.4142 153.413 44.3338C153.173 44.1732 152.853 44.0929 152.453 44.0929H151.333V43.3701H152.453C152.693 43.3701 152.933 43.3701 153.093 43.2898C153.253 43.2094 153.413 43.1291 153.493 43.0488C153.573 42.9685 153.653 42.8079 153.653 42.6472C153.653 42.4866 153.573 42.326 153.493 42.2457C153.413 42.1653 153.253 42.0047 153.013 42.0047C152.773 42.0047 152.533 41.9244 152.293 41.9244C152.053 41.9244 151.733 42.0047 151.493 42.0047C151.253 42.0047 150.932 42.1653 150.612 42.326L150.372 41.6031C150.692 41.4425 151.013 41.3622 151.333 41.2819C151.653 41.2016 151.973 41.1212 152.293 41.1212C152.773 41.1212 153.173 41.1212 153.493 41.2819C153.894 41.3622 154.134 41.6031 154.374 41.7638C154.614 41.9244 154.694 42.2457 154.694 42.5669C154.694 42.8079 154.614 43.0488 154.454 43.2898C154.294 43.4504 154.054 43.611 153.813 43.7716C153.573 43.852 153.253 43.9323 152.853 43.9323L152.933 43.6913C153.493 43.6913 153.974 43.7716 154.374 44.0126C154.694 44.2535 154.854 44.5748 154.854 44.9764C154.854 45.2976 154.774 45.6189 154.534 45.8598C154.294 46.1008 154.054 46.2614 153.653 46.422C153.253 46.5023 152.853 46.5827 152.373 46.5827Z" fill="#B02A1F"/>
<path d="M160.616 46.5827C160.056 46.5827 159.576 46.5023 159.175 46.2614C158.775 46.0205 158.455 45.6992 158.215 45.2976C157.975 44.896 157.815 44.4142 157.815 43.852C157.815 43.2897 157.975 42.8882 158.215 42.4063C158.455 42.0047 158.775 41.6834 159.175 41.4425C159.576 41.2016 160.056 41.1212 160.616 41.1212C161.176 41.1212 161.656 41.2016 162.056 41.4425C162.457 41.6834 162.777 42.0047 163.017 42.4063C163.257 42.8079 163.337 43.2897 163.337 43.852C163.337 44.4142 163.257 44.896 163.017 45.2976C162.777 45.6992 162.457 46.0205 162.056 46.2614C161.576 46.5023 161.096 46.5827 160.616 46.5827ZM160.616 45.7795C160.936 45.7795 161.256 45.6992 161.576 45.5386C161.816 45.3779 162.056 45.137 162.216 44.896C162.376 44.5748 162.457 44.2535 162.457 43.9323C162.457 43.5307 162.376 43.2094 162.216 42.9685C162.056 42.7275 161.816 42.4866 161.576 42.326C161.336 42.1653 161.016 42.085 160.616 42.085C160.216 42.085 159.976 42.1653 159.736 42.326C159.495 42.4866 159.255 42.7275 159.095 42.9685C158.935 43.2094 158.855 43.611 158.855 43.9323C158.855 44.3338 158.935 44.6551 159.095 44.896C159.255 45.2173 159.495 45.3779 159.736 45.5386C159.976 45.6992 160.216 45.7795 160.616 45.7795Z" fill="#B02A1F"/>
<path d="M166.778 46.5023V41.1212H171.74V46.5023H170.779V41.7638L171.019 42.0047H167.578L167.818 41.7638V46.5023H166.778Z" fill="#B02A1F"/>
<path d="M177.182 46.5827C176.781 46.5827 176.461 46.5023 176.141 46.3417C175.821 46.1811 175.581 46.0205 175.421 45.7795C175.261 45.5386 175.181 45.2976 175.181 44.9764C175.181 44.6551 175.261 44.4142 175.421 44.1732C175.581 43.9323 175.821 43.7716 176.061 43.611C176.381 43.4504 176.782 43.3701 177.342 43.3701H179.022V44.1732H177.342C176.862 44.1732 176.541 44.2535 176.381 44.4142C176.221 44.5748 176.141 44.7354 176.141 44.9764C176.141 45.2173 176.221 45.4583 176.461 45.6189C176.701 45.7795 176.942 45.8598 177.342 45.8598C177.742 45.8598 178.062 45.7795 178.302 45.6189C178.542 45.4583 178.782 45.2173 178.862 44.896L179.022 45.5386C178.862 45.8598 178.702 46.1008 178.382 46.2614C178.062 46.5023 177.662 46.5827 177.182 46.5827ZM178.942 46.5023V45.3779L178.862 45.137V43.2094C178.862 42.8079 178.782 42.4866 178.542 42.2457C178.302 42.0047 177.982 41.9244 177.502 41.9244C177.182 41.9244 176.862 42.0047 176.541 42.085C176.221 42.1653 175.981 42.326 175.741 42.4866L175.341 41.7638C175.581 41.5228 175.981 41.3622 176.301 41.2819C176.621 41.2016 177.102 41.1212 177.502 41.1212C178.222 41.1212 178.782 41.2819 179.182 41.6835C179.582 42.0047 179.743 42.5669 179.743 43.2898V46.5023H178.942Z" fill="#B02A1F"/>
<path d="M185.905 46.5827C185.344 46.5827 184.864 46.5023 184.464 46.2614C184.064 46.0205 183.664 45.6992 183.424 45.2976C183.184 44.896 183.024 44.4142 183.024 43.852C183.024 43.2897 183.184 42.8079 183.424 42.4063C183.664 42.0047 183.984 41.6834 184.464 41.4425C184.864 41.2016 185.344 41.1212 185.905 41.1212C186.385 41.1212 186.785 41.2016 187.185 41.4425C187.585 41.6031 187.825 41.9244 188.065 42.326L187.345 42.8079C187.185 42.5669 186.945 42.326 186.705 42.2457C186.465 42.085 186.145 42.085 185.905 42.085C185.585 42.085 185.264 42.1653 184.944 42.326C184.624 42.4866 184.464 42.7275 184.304 42.9685C184.144 43.2094 184.064 43.611 184.064 43.9323C184.064 44.2535 184.144 44.6551 184.304 44.896C184.464 45.2173 184.704 45.3779 184.944 45.5386C185.184 45.6992 185.505 45.7795 185.905 45.7795C186.225 45.7795 186.465 45.6992 186.705 45.6189C186.945 45.4583 187.185 45.2976 187.345 45.0567L188.065 45.5386C187.825 45.9401 187.585 46.1811 187.185 46.422C186.865 46.5023 186.385 46.5827 185.905 46.5827Z" fill="#B02A1F"/>
<path d="M191.347 46.5023V41.1212H192.307V43.3701H195.348V41.1212H196.308V46.5023H195.348V44.2535H192.307V46.5023H191.347Z" fill="#B02A1F"/>
<path d="M202.55 46.5827C201.99 46.5827 201.51 46.5023 201.11 46.2614C200.71 46.0205 200.39 45.6992 200.15 45.2976C199.91 44.896 199.749 44.4142 199.749 43.852C199.749 43.2897 199.91 42.8882 200.15 42.4063C200.39 42.0047 200.71 41.6834 201.11 41.4425C201.51 41.2016 201.99 41.1212 202.55 41.1212C203.111 41.1212 203.591 41.2016 203.991 41.4425C204.391 41.6834 204.711 42.0047 204.951 42.4063C205.191 42.8079 205.271 43.2897 205.271 43.852C205.271 44.4142 205.191 44.896 204.951 45.2976C204.711 45.6992 204.391 46.0205 203.991 46.2614C203.511 46.5023 203.031 46.5827 202.55 46.5827ZM202.55 45.7795C202.871 45.7795 203.191 45.6992 203.511 45.5386C203.751 45.3779 203.991 45.137 204.151 44.896C204.311 44.5748 204.391 44.2535 204.391 43.9323C204.391 43.5307 204.311 43.2094 204.151 42.9685C203.991 42.7275 203.751 42.4866 203.511 42.326C203.271 42.1653 202.951 42.085 202.55 42.085C202.15 42.085 201.91 42.1653 201.67 42.326C201.43 42.4866 201.19 42.7275 201.03 42.9685C200.87 43.2094 200.79 43.611 200.79 43.9323C200.79 44.3338 200.87 44.6551 201.03 44.896C201.19 45.2173 201.43 45.3779 201.67 45.5386C201.91 45.6992 202.23 45.7795 202.55 45.7795Z" fill="#B02A1F"/>
<path d="M211.033 46.5827C210.473 46.5827 209.993 46.5023 209.593 46.2614C209.193 46.0205 208.793 45.6992 208.553 45.2976C208.312 44.896 208.152 44.4142 208.152 43.852C208.152 43.2897 208.312 42.8079 208.553 42.4063C208.793 42.0047 209.113 41.6834 209.593 41.4425C209.993 41.2016 210.473 41.1212 211.033 41.1212C211.514 41.1212 211.914 41.2016 212.314 41.4425C212.714 41.6031 212.954 41.9244 213.194 42.326L212.474 42.8079C212.314 42.5669 212.074 42.326 211.834 42.2457C211.594 42.085 211.274 42.085 211.033 42.085C210.713 42.085 210.393 42.1653 210.073 42.326C209.753 42.4866 209.593 42.7275 209.433 42.9685C209.273 43.2094 209.193 43.611 209.193 43.9323C209.193 44.2535 209.273 44.6551 209.433 44.896C209.593 45.2173 209.833 45.3779 210.073 45.5386C210.313 45.6992 210.633 45.7795 211.033 45.7795C211.354 45.7795 211.594 45.6992 211.834 45.6189C212.074 45.4583 212.314 45.2976 212.474 45.0567L213.194 45.5386C212.954 45.9401 212.714 46.1811 212.314 46.422C211.994 46.5023 211.514 46.5827 211.033 46.5827Z" fill="#B02A1F"/>
<path d="M217.436 46.5023V41.7638L217.676 42.0047H215.515V41.1212H220.397V42.0047H218.236L218.476 41.7638V46.5023H217.436Z" fill="#B02A1F"/>
<path d="M223.358 46.5023V41.1212H224.318V45.0567L227.599 41.1212H228.479V46.5023H227.519V42.5669L224.238 46.5023H223.358Z" fill="#B02A1F"/>
</g>
<defs>
<clipPath id="clip0_33_7">
<rect width="230" height="51" fill="white"/>
</clipPath>
</defs>
</svg>
