<svg id="gerb" width="36" height="36" viewBox="0 0 36 36" fill="none" xmlns="http://www.w3.org/2000/svg">
<path d="M24.5049 12.0694C23.9846 11.5491 23.1523 11.5491 22.632 11.7572C22.9442 11.341 23.6725 11.0289 23.8806 11.0289C23.9846 11.1329 24.5049 11.5491 24.5049 12.0694ZM26.2737 10.0925C25.8575 8.11561 21.2794 9.46821 18.9904 8.63584C18.9904 9.26012 19.7187 10.0925 20.4471 10.5087C19.1985 11.5491 18.054 13.7341 17.8459 16.3353C17.6378 13.6301 16.4933 11.4451 15.2448 10.4046C15.9731 10.0925 16.7014 9.15607 16.7014 8.53179C14.4124 9.36416 9.83436 8.11561 9.41817 10.0925C9.31412 10.5087 9.52222 11.1329 9.73031 11.341C9.73031 11.237 9.9384 10.8208 10.5627 10.7168C13.7881 10.1965 16.4933 15.1908 14.1003 17.1676V17.2717H21.3835C21.3835 17.2717 21.4875 17.1676 21.3835 17.1676C18.9904 15.1908 21.6956 10.1965 24.9211 10.7168C25.5453 10.8208 25.7534 11.237 25.7534 11.341C26.1696 11.1329 26.3777 10.5087 26.2737 10.0925ZM27.002 5.51445C26.8979 5.30636 28.8748 5.30636 28.8748 6.55491C28.8748 7.38728 27.7303 7.69942 27.7303 8.53179C27.7303 8.94798 28.1465 9.15607 28.2505 9.15607C27.9384 7.80347 29.187 8.53179 29.4991 8.73988C28.8748 6.9711 30.3315 6.9711 30.1234 6.13873C30.0193 5.6185 28.7708 5.72254 28.2505 5.4104C27.4182 4.89017 26.4818 2.91329 25.8575 4.89017C27.002 6.03468 26.3777 7.59538 24.817 7.59538V7.80347C26.7939 7.90752 27.4182 6.55491 27.002 5.51445ZM6.08869 8.73988C6.40083 8.53179 7.64938 7.80347 7.33724 9.15607C7.44129 9.15607 7.85748 8.84393 7.85748 8.53179C7.85748 7.69942 6.71297 7.28324 6.71297 6.55491C6.71297 5.41041 8.5858 5.41041 8.5858 5.51445C8.27366 6.55491 8.89794 7.90751 10.6667 8.01156V7.80347C9.21008 7.80347 8.48175 6.13873 9.62626 5.09827C9.00198 3.12139 8.06557 5.09827 7.2332 5.6185C6.81701 5.82659 5.56846 5.6185 5.46441 6.24277C5.25632 7.07514 6.71297 6.9711 6.08869 8.73988ZM11.187 12.0694C11.7072 11.5491 12.5396 11.5491 13.0598 11.7572C12.7477 11.341 12.0193 11.0289 11.8112 11.0289C11.7072 11.1329 11.187 11.5491 11.187 12.0694ZM18.6783 1.04046L17.8459 0L17.0135 1.04046L17.8459 2.18497L18.6783 1.04046ZM23.6725 4.2659L23.0482 3.53757L22.424 4.2659L23.0482 4.99422L23.6725 4.2659ZM28.7708 26.1156L27.9384 25.2832L27.106 26.1156L27.9384 26.8439L28.7708 26.1156ZM13.1638 4.2659L12.5396 3.53757L11.9153 4.2659L12.5396 4.99422L13.1638 4.2659ZM11.3951 8.01156H13.6841C15.6609 8.01156 16.4933 6.86705 16.8055 5.82659H18.7823C19.0945 6.86705 19.9268 8.01156 21.9037 8.01156H24.1927C24.1927 8.01156 24.6089 7.49133 24.713 7.17919C25.1292 6.24277 24.6089 5.72254 23.8806 5.72254L23.0482 6.55491L22.2159 5.72254C21.4875 5.72254 21.0714 6.13873 21.3835 7.17919C21.3835 7.28324 21.5916 7.49133 21.6956 7.69942C20.8633 7.59538 19.8228 7.07514 19.6147 5.82659C19.6147 5.82659 20.239 4.89017 20.343 4.47399C20.8633 3.12139 20.239 2.49711 19.1985 2.49711L17.8459 4.0578L16.4933 2.39306C15.4529 2.39306 14.7245 3.01734 15.3488 4.36994C15.4529 4.78613 16.0771 5.72254 16.0771 5.72254C15.869 6.9711 14.8286 7.49133 13.9962 7.59538C14.1003 7.38728 14.2043 7.28324 14.3083 7.07515C14.7245 6.13873 14.2043 5.6185 13.476 5.6185L12.6436 6.45087L11.8112 5.6185C11.0829 5.6185 10.6667 6.03468 10.9789 7.07515C10.9789 7.38728 11.3951 8.01156 11.3951 8.01156ZM35.4297 15.1908C35.0135 15.3988 32.3083 16.6474 28.9789 16.2312C28.9789 16.0231 29.0829 15.9191 29.0829 15.711C31.3719 15.3988 33.1407 15.0867 34.2852 14.4624C35.6378 13.7341 36.1581 11.9653 35.5338 10.7168H35.4297C35.0135 11.1329 32.7245 13.6301 29.0829 14.3584C29.0829 14.1503 29.0829 13.9422 29.0829 13.8382C30.8517 12.7977 32.5164 11.6532 33.3488 10.6127C34.5974 9.05202 34.4933 6.9711 33.2448 5.93064C32.8286 6.55491 29.3951 12.1734 25.5453 14.5665L25.4413 14.6705C25.3372 14.7746 25.3372 14.8786 25.4413 14.9827C25.8575 15.3988 26.1696 15.9191 26.1696 16.5434C26.1696 17.5838 25.3372 18.5202 24.2968 18.7283C23.7766 18.8324 22.9442 18.8324 22.2159 18.5202H22.1118V21.8497C22.1118 21.9538 22.2159 21.9538 22.2159 21.8497C22.7361 20.6012 24.0887 20.3931 24.713 20.3931C24.9211 21.7457 25.3372 22.7861 25.8575 23.4104C26.6898 24.3468 28.0424 24.3468 28.6667 23.7225C28.3546 23.5145 26.3777 22.2659 25.9615 20.289C26.1696 20.185 26.2737 20.185 26.3777 20.0809C27.002 21.1214 27.9384 22.0578 28.6667 22.474C29.9153 23.0983 31.0598 22.7861 31.58 21.8497V21.7457C30.7477 21.6416 28.3546 21.0173 27.4182 19.3526C27.5222 19.2486 27.6263 19.1445 27.7303 19.0405C28.7708 19.8728 30.3315 20.6012 31.3719 20.7052C32.6205 20.9133 34.0771 20.4971 34.0771 19.0405C34.0771 19.0405 34.0771 18.9364 33.9731 19.0405C33.5569 19.0405 30.5396 19.1445 28.4586 18C28.5627 17.896 28.5627 17.6879 28.6667 17.5838C28.6667 17.5838 31.8922 18.3121 33.3488 18.104C34.8055 17.6879 35.6378 16.5434 35.4297 15.1908C35.5338 15.1908 35.4297 15.0867 35.4297 15.1908ZM7.12915 17.4798C7.12915 17.5838 7.2332 17.6879 7.33724 17.896C5.25632 19.1445 2.23898 18.9364 1.82279 18.9364H1.71875C1.71875 20.3931 3.1754 20.8092 4.42395 20.6012C5.46441 20.4971 7.02511 19.7688 8.06557 18.9364C8.16961 19.0405 8.27366 19.1445 8.37771 19.2486C7.33725 20.9133 4.94418 21.6416 4.21586 21.6416C4.21586 21.6416 4.11181 21.6416 4.21586 21.7457C4.73609 22.578 5.8806 22.8902 7.12915 22.3699C7.85748 22.0578 8.79389 21.0173 9.41817 19.9769C9.52222 20.0809 9.73031 20.0809 9.83436 20.185C9.41817 22.1618 7.44129 23.4104 7.12915 23.6185C7.75343 24.2428 9.10603 24.2428 9.9384 23.3064C10.4586 22.6821 10.8748 21.6416 11.0829 20.289C11.7072 20.289 13.0598 20.6012 13.58 21.7457C13.58 21.8497 13.6841 21.7457 13.6841 21.7457V18.3121C13.6841 18.3121 13.6841 18.2081 13.58 18.3121C12.8517 18.5202 12.0193 18.6243 11.4991 18.5202C10.3546 18.3121 9.62626 17.4798 9.62626 16.3353C9.62626 15.711 9.9384 15.1908 10.3546 14.7746C10.4586 14.6705 10.4586 14.5665 10.3546 14.4624L10.2505 14.3584C6.40083 11.9653 2.9673 6.34682 2.55112 5.72254H2.44707C1.30256 6.76301 1.19852 8.73989 2.34303 10.4046C3.1754 11.4451 4.84014 12.5896 6.60892 13.6301C6.60892 13.8382 6.60892 14.0462 6.60892 14.1503C2.9673 13.422 0.678285 10.9249 0.366146 10.5087H0.2621C-0.362177 11.8613 0.158054 13.526 1.51066 14.2543C2.65516 14.8786 4.528 15.2948 6.71297 15.5029C6.71297 15.711 6.81701 15.815 6.81701 16.0231C3.48753 16.4393 0.782331 15.2948 0.366146 14.9827H0.2621C-0.0500386 16.5434 0.886378 17.6879 2.34303 17.896C3.90372 18.2081 7.12915 17.4798 7.12915 17.4798ZM27.9384 27.8844L26.7939 26.948C26.3777 27.2601 25.9615 27.6763 25.8575 28.1965C25.1292 28.3006 23.2563 27.8844 23.4644 27.5723C25.5453 24.659 23.9846 22.8902 22.0078 22.9942V24.9711C22.0078 25.5954 21.4875 26.1156 20.7592 26.1156H19.4066C18.4702 26.1156 17.8459 27.052 17.8459 27.052C17.8459 27.052 17.2216 26.1156 16.2852 26.1156H14.9326C14.2043 26.1156 13.6841 25.5954 13.6841 24.9711V22.9942C11.7072 22.8902 10.1465 24.659 12.2274 27.5723C12.4355 27.8844 10.4586 28.3006 9.52222 28.1965C9.31412 27.9884 8.89794 27.7803 8.5858 27.7803C8.37771 27.7803 8.27366 27.7803 8.06557 27.8844C8.06557 27.8844 4.42395 24.4509 4.3199 24.4509V24.3468C4.528 23.9306 4.21586 23.5145 4.00776 23.6185C4.21586 23.3064 4.21586 22.1619 2.9673 21.8497C2.9673 22.0578 3.07135 22.578 3.07135 22.578C3.07135 22.578 2.03089 22.0578 1.6147 22.474C1.09447 22.9942 1.71875 23.9306 1.71875 23.9306C1.71875 23.9306 1.19852 23.9306 0.990424 23.9306C1.40661 25.1792 2.55112 25.0751 2.86326 24.8671C2.86326 25.0751 3.27944 25.3873 3.69563 25.0751L3.90372 24.9711L7.44129 28.3006C7.2332 28.5087 7.2332 28.8208 7.2332 29.1329C7.33724 29.6532 7.75343 30.0694 8.27366 30.1734C8.68985 30.2775 9.00199 30.1734 9.31413 29.9653L10.2505 30.7977C10.3546 30.9017 10.4586 30.9017 10.5627 30.9017C10.7708 30.9017 10.9789 30.6936 10.9789 30.4855C10.9789 30.3815 10.8748 30.2775 10.8748 30.2775L9.9384 29.4451C10.6667 28.9249 12.1234 28.5087 13.3719 28.5087C13.58 28.5087 13.6841 28.3006 13.58 28.1965C13.0598 26.948 14.2043 25.9075 15.4529 26.7399C15.9731 27.052 16.4933 27.7803 16.9095 28.8208C14.9326 29.341 12.4355 30.5896 11.9153 32.0462C11.7072 32.5665 12.3315 33.3988 13.1638 33.5029C13.58 31.3179 15.869 29.7572 17.1176 29.4451C17.2216 29.6532 17.1176 29.5491 17.2216 29.7572C15.869 30.3815 14.6205 31.6301 14.3083 33.1908C14.1003 33.9191 14.9326 34.5434 15.5569 34.7514H15.6609C15.765 32.7746 16.7014 31.1098 17.4297 30.3815C17.4297 30.4856 17.4297 30.6936 17.4297 30.7977C17.4297 30.7977 16.5974 32.9827 16.5974 34.6474C16.5974 35.3757 17.7419 35.896 17.8459 36C18.054 35.896 19.1985 35.3757 19.1985 34.6474C19.1985 32.9827 18.3661 30.7977 18.3661 30.7977C18.3661 30.6936 18.3661 30.4856 18.3661 30.3815C19.0945 31.1098 20.0309 32.7746 20.1349 34.7514C20.1349 34.7514 20.1349 34.8555 20.239 34.7514C20.8633 34.5434 21.6956 33.9191 21.4875 33.1908C21.1754 31.6301 19.8228 30.3815 18.5742 29.7572C18.6783 29.5491 18.5742 29.6532 18.6783 29.4451C19.9268 29.7572 22.2159 31.3179 22.632 33.5029C23.3604 33.3988 24.0887 32.5665 23.8806 32.0462C23.3604 30.5896 20.8633 29.341 18.8864 28.8208C19.3026 27.6763 19.8228 27.052 20.343 26.7399C21.5916 26.0116 22.7361 26.948 22.2159 28.1965C22.1118 28.4046 22.2159 28.5087 22.424 28.5087C23.7766 28.5087 25.4413 29.0289 26.0656 29.6532C26.4818 30.2775 27.3141 30.6936 28.1465 30.5896C29.187 30.4855 29.9153 29.7572 30.1234 28.8208C30.2274 27.9884 29.8112 27.2601 29.0829 26.8439L27.9384 27.8844ZM19.3026 22.0578C19.7188 21.9538 20.343 22.0578 20.343 22.578C20.343 22.6821 20.5511 22.6821 20.5511 22.578C20.6552 21.6416 20.0309 21.4335 19.4066 21.5376C19.3026 21.2254 19.3026 20.9133 19.1985 20.7052C19.0945 20.4971 19.0945 20.0809 19.4066 20.0809C19.5107 20.0809 19.5107 20.4971 19.5107 20.6012C19.5107 20.7052 19.5107 20.8092 19.6147 20.8092C19.7188 20.8092 19.8228 20.7052 19.8228 20.7052C20.1349 20.289 20.239 19.6647 19.8228 19.3526C19.5107 19.1445 18.5742 19.2486 18.3661 19.6647C18.3661 19.5607 18.1581 19.2486 18.054 19.2486C17.95 19.1445 17.95 19.0405 18.054 19.0405C18.1581 19.0405 18.2621 18.8324 18.2621 18.6243C18.2621 18.5202 18.1581 18.3121 17.95 18.3121C17.7419 18.3121 17.5338 18.4162 17.5338 18.7283C17.5338 18.8324 17.5338 18.8324 17.6378 18.9364C17.5338 18.9364 17.2216 18.9364 17.0135 18.9364L19.4066 25.3873C20.0309 25.0751 20.5511 24.5549 20.5511 23.9306C20.5511 23.4104 19.8228 23.6185 19.5107 24.0347C19.4066 23.4104 19.3026 22.8902 19.1985 22.2659C19.0945 22.1618 19.1985 22.0578 19.3026 22.0578ZM16.0771 17.6879L16.5974 19.0405C16.1812 19.1445 15.4529 19.4566 15.4529 19.8728C15.4529 20.3931 16.3893 20.8092 17.0135 20.7052C17.0135 20.8092 17.0135 20.9133 17.1176 21.0173C16.9095 21.0173 16.4933 21.1214 16.3893 21.2254C16.0771 20.9133 15.6609 20.8092 15.4529 21.0173C15.2448 21.2254 15.2448 21.4335 15.4529 21.7457C15.6609 21.9538 15.6609 22.1619 15.4529 22.474C16.0771 22.474 15.869 21.6416 16.1812 21.6416C16.1812 21.8497 16.1812 21.9538 16.2852 22.2659C16.2852 22.3699 16.2852 22.474 16.2852 22.6821C16.0771 22.9942 15.765 23.8266 15.765 24.5549C15.5569 24.5549 15.4529 24.4509 15.5569 24.2428C15.5569 24.1387 15.5569 24.0347 15.4529 24.1387C15.3488 24.2428 15.3488 24.5549 15.3488 24.659C15.3488 25.2832 16.0771 25.3873 16.3893 25.2832C17.2216 26.1156 18.8864 25.9075 19.4066 25.5954L16.4933 17.6879C16.1812 17.4798 15.9731 17.4798 16.0771 17.6879ZM15.9731 24.1387C15.869 23.8266 16.3893 23.2023 16.9095 22.6821C16.8055 23.0983 16.9095 23.7225 17.1176 23.9306C16.7014 23.9306 16.1812 24.0347 15.9731 24.1387Z" fill="#B02A1F"/>
</svg>
