<svg id="post" width="20" height="15" viewBox="0 0 20 15" fill="none" xmlns="http://www.w3.org/2000/svg">
<path fill-rule="evenodd" clip-rule="evenodd" d="M14.3 8.3C15.3 7.6 16.5 6.7 18 5.8C18.4 5.5 18.8 5.2 19.1 4.9V13.1L14.3 8.3ZM17.2 4.6C15.5 5.8 14.2 6.7 13.3 7.3C12.8 7.6 12.5 7.9 12.2 8C12.2 8 12.1 8.1 12 8.1C11.9 8.2 11.8 8.2 11.7 8.3C11.5 8.5 11.3 8.6 11.1 8.7C11 8.9 10.9 9 10.7 9.2C10.5 9.3 10.3 9.4 10.1 9.5C9.9 9.5 9.7 9.5 9.5 9.5C9.3 9.5 9.2 9.5 9 9.4C8.8 9.4 8.6 9.3 8.3 9.2C8.1 9 8 8.9 7.8 8.8C7.6 8.7 7.5 8.6 7.2 8.4C7.1 8.3 7 8.3 6.9 8.2C6.9 8.1 6.8 8.1 6.8 8.1C6.5 7.9 6.1 7.6 5.7 7.3C5.2 7 4.7 6.6 4 6.1C2.8 5.3 2.1 4.8 1.8 4.6C1.4 4.3 1 3.9 0.6 3.4C0.2 2.9 0 2.4 0 1.9C0 1.3 0.1 0.9 0.4 0.5C0.7 0.2 1.2 0 1.7 0H17.3C17.8 0 18.2 0.2 18.5 0.5C18.8 0.8 19 1.2 19 1.7C19 2.3 18.8 2.8 18.5 3.3C18.1 3.8 17.7 4.3 17.2 4.6ZM4.7 8.3L0 13.1V4.8C0.3 5.1 0.7 5.5 1.1 5.7C2.6 6.8 3.8 7.6 4.7 8.3ZM6.3 9.4C6.7 9.7 7 9.9 7.3 10.1C7.6 10.3 7.9 10.4 8.3 10.6C8.7 10.8 9.1 10.9 9.5 10.9C9.9 10.9 10.2 10.8 10.7 10.6C11.1 10.4 11.5 10.3 11.7 10.1C12 9.9 12.3 9.7 12.7 9.4C12.8 9.3 12.9 9.2 13.1 9.1L18.5 14.5C18.2 14.8 17.8 14.9 17.4 14.9H1.7C1.3 14.9 0.9 14.8 0.6 14.5L6 9.2C6.1 9.3 6.2 9.4 6.3 9.4Z" fill="white"/>
</svg>
