<svg width="40" height="40" viewBox="0 0 40 40" fill="none" xmlns="http://www.w3.org/2000/svg">
<rect width="40" height="40" rx="4" fill="#19C635"/>
<path fill-rule="evenodd" clip-rule="evenodd" d="M28.4 11.6C26.2 9.30001 23.2 8.10001 20 8.10001C13.5 8.10001 8.19998 13.4 8.19998 19.9C8.19998 22 8.69998 24 9.79998 25.8L8.09998 31.9L14.4 30.3C16.1 31.2 18.1 31.7 20.1 31.7C26.6 31.7 31.9 26.4 31.9 19.9C31.9 16.7 30.6 13.8 28.4 11.6ZM20 29.7C18.2 29.7 16.5 29.2 15 28.3L14.7 28.1L11 29.1L12 25.5L11.7 25.1C10.7 23.5 10.2 21.7 10.2 19.9C10.2 14.5 14.6 10.1 20 10.1C22.6 10.1 25.1 11.1 27 13C28.9 14.8 29.9 17.3 29.9 19.9C29.9 25.3 25.5 29.7 20 29.7ZM25.4 22.3C25.1 22.2 23.7 21.4 23.4 21.3C23.1 21.2 22.9 21.2 22.7 21.4C22.5 21.7 21.9 22.4 21.8 22.6C21.6 22.8 21.5 22.8 21.2 22.7C20.9 22.6 20 22.2 18.8 21.2C17.9 20.4 17.3 19.5 17.2 19.2C17 18.9 17.2 18.8 17.3 18.6C17.6 18.2 17.9 17.8 18 17.6C18.1 17.4 18 17.2 18 17.1C17.9 17 17.3 15.5 17.1 15C16.8 14.4 16.6 14.5 16.4 14.4C16.2 14.4 16 14.4 15.8 14.4C15.6 14.4 15.3 14.5 15.1 14.8C14.8 15.1 14.1 15.8 14.1 17.3C14.1 18.7 15.2 20.1 15.3 20.3C15.4 20.5 17.4 23.5 20.4 24.7C21.1 25 21.7 25.2 22.1 25.3C22.8 25.5 23.5 25.5 24 25.4C24.6 25.3 25.7 24.7 26 24C26.2 23.3 26.2 22.7 26.2 22.6C25.9 22.6 25.7 22.5 25.4 22.3Z" fill="white"/>
</svg>
