<svg width="51" height="51" viewBox="0 0 51 51" fill="none" xmlns="http://www.w3.org/2000/svg">
<path fill-rule="evenodd" clip-rule="evenodd" d="M28 35.9C35.1 35.9 40.9 30.1 40.9 23C40.9 21.1 40.5 19.3 39.7 17.6L38.5 15L31.3 22.2C31 22.5 30.5 22.7 30.1 22.7C29.6 22.7 29.2 22.5 28.9 22.2C28.6 21.9 28.4 21.4 28.4 21C28.4 20.5 28.6 20.1 28.9 19.7L36.1 12.5L33.5 11.3C31.8 10.5 29.9 10.1 28.1 10.1C21 10.1 15.2 15.9 15.2 23C15.2 24.4 15.4 25.8 15.9 27.1L1.7 41C0.6 42.1 0 43.6 0 45.1C0 46.6 0.6 48.1 1.7 49.2C2.8 50.3 4.2 50.9 5.8 50.9C7.3 50.9 8.8 50.3 9.9 49.2L24 35.3C25.2 35.7 26.6 35.9 28 35.9ZM7 46.3C6.7 46.6 6.2 46.8 5.7 46.8C5.2 46.8 4.8 46.6 4.5 46.3C4.2 46 4 45.6 4 45.1C4 44.6 4.2 44.2 4.5 43.9L20.5 28.1L19.9 26.8C19.3 25.6 19.1 24.3 19.1 23C19.1 18.1 23.1 14.1 28 14.1C28.3 14.1 28.5 14.1 28.8 14.1L26 16.9C24.9 18 24.3 19.4 24.3 21C24.3 22.5 24.9 24 26 25.1C27.1 26.2 28.5 26.8 30.1 26.8C31.6 26.8 33.1 26.2 34.2 25.1L37 22.3C37 22.6 37 22.8 37 23.1C37 28 33 32 28.1 32C26.8 32 25.5 31.7 24.3 31.2L23 30.5L7 46.3ZM5 22.9H9C9 24.5 9.2 26.1 9.6 27.7L6.4 30.8C5.4 28.3 5 25.7 5 22.9ZM14.8 16.8H4.9V6.9H8.9V10.2C13 3.9 20.2 0 27.9 0C34 0 39.8 2.4 44.1 6.7C48.4 11 50.8 16.8 50.8 22.9H46.8C46.8 12.4 38.3 3.9 27.8 3.9C21.2 3.9 15.2 7.3 11.8 12.7H14.7V16.8H14.8ZM40.9 29.1H50.8V39H46.8V35.8C45.1 38.3 42.9 40.4 40.4 42.1C36.7 44.5 32.3 45.8 27.9 45.8C25.2 45.8 22.6 45.3 20.1 44.5L23.3 41.3C24.8 41.7 26.3 41.8 27.8 41.8C34.3 41.8 40.4 38.4 43.8 33H40.8V29.1H40.9Z" fill="#FF9000"/>
</svg>
