<svg width="57" height="56" viewBox="0 0 57 56" fill="none" xmlns="http://www.w3.org/2000/svg">
<path d="M28.4 4.4C34.5 4.4 40 7.1 43.7 11.9L47.2 9.3C45.1 6.5 42.3 4.1 39.1 2.5C35.8 0.9 32.1 0 28.4 0C24.7 0 21.1 0.8 17.8 2.5C14.7 4.1 11.9 6.4 9.7 9.2L13.2 11.8C16.9 7.1 22.4 4.4 28.4 4.4ZM56.8 41.4L54.8 39.8C54.5 39.6 53.3 38.7 51.6 37.8C51.9 37.5 52.2 37.3 52.5 36.9C55.7 33.5 56.4 28 56.4 27.7L56.7 25.2L54.2 25.3C54.5 24.7 54.8 24.1 54.9 23.4C56 18.9 54 13.6 53.9 13.4L53 11.1L50.8 12.3C50.2 12.7 44.6 15.9 43.4 20.6C42.7 23.6 43.6 26.5 44.5 28.3C44.2 28.5 43.9 28.8 43.6 29.1C42.3 30.5 41.6 32.3 41.2 33.9C40.2 37.4 37.8 39.9 34.1 41.4C31.8 42.3 29.6 42.6 28.7 42.7C28.6 42.7 28.5 42.7 28.3 42.7C28.2 42.7 28.1 42.7 28 42.7C27.1 42.6 24.9 42.4 22.6 41.4C18.8 39.9 16.3 37.3 15.4 33.6H15.3C14.9 32 14.2 30.4 13 29C12.8 28.7 12.5 28.5 12.2 28.3C13.1 26.4 14.1 23.5 13.4 20.5C12.2 16 6.6 12.8 6 12.4L3.8 11.2L2.9 13.5C2.8 13.7 0.8 19 1.9 23.5C2.1 24.2 2.3 24.8 2.6 25.4L0.1 25.3L0.4 27.8C0.4 28 1.2 33.5 4.3 37C4.6 37.3 4.9 37.6 5.2 37.9C3.5 38.8 2.3 39.7 2 39.9L0 41.5L1.9 43.3C2.1 43.5 6.1 47.2 10.8 48C10 49.4 9.5 50.7 9.4 50.9L8.5 53.3L11 53.8C11.1 53.8 12.9 54.2 15.2 54.2C17 54.2 19.2 54 21.1 53.2C21.6 53 22.1 52.7 22.5 52.4C23.6 54.6 25.8 56.1 28.5 56.1C31.1 56.1 33.4 54.6 34.5 52.4C35 52.7 35.4 53 36 53.2C37.9 54 40.1 54.2 41.9 54.2C44.2 54.2 45.9 53.8 46.1 53.8L48.6 53.3L47.7 50.9C47.6 50.6 47.1 49.4 46.3 48C50.9 47.3 55 43.5 55.2 43.3L56.8 41.4ZM6.2 17.9C7.5 19 8.8 20.4 9.1 21.7C9.5 23.1 9.1 24.7 8.6 25.9C7.6 25.1 6.6 23.9 6.2 22.4C5.8 21 5.9 19.3 6.2 17.9ZM9.7 32.1C10.6 33.1 11.1 34.7 11.2 36C10 35.7 8.5 35.2 7.5 34.1C6.5 33 5.9 31.5 5.4 30.2C7.1 30.5 8.8 31.1 9.7 32.1ZM11.5 43.5C10.1 43.3 8.5 42.5 7.3 41.7C8.8 41 10.5 40.4 11.9 40.6C13.3 40.8 14.6 41.7 15.6 42.6C15.5 42.7 15.4 42.7 15.3 42.8C14.2 43.3 12.8 43.7 11.5 43.5ZM19.3 49C18 49.6 16.3 49.7 14.8 49.7C15.5 48.6 16.4 47.4 17.5 46.7C17.8 46.6 18.1 46.4 18.4 46.3C19.7 45.8 21.2 46 22.4 46.2C21.7 47.2 20.6 48.4 19.3 49ZM28.4 51.5C27.2 51.5 26.2 50.5 26.2 49.3C26.2 48.2 27 47.3 28.1 47.1C28.2 47.1 28.3 47.1 28.3 47.1C28.3 47.1 28.3 47.1 28.4 47.1H28.5C28.6 47.1 28.6 47.1 28.7 47.1C29.8 47.2 30.6 48.2 30.6 49.3C30.6 50.5 29.6 51.5 28.4 51.5ZM47.8 21.7C48.2 20.3 49.4 18.9 50.7 17.9C51 19.3 51.1 21 50.7 22.4C50.3 23.9 49.3 25.1 48.3 25.9C47.8 24.7 47.4 23.1 47.8 21.7ZM37.6 49C36.2 48.4 35.2 47.2 34.5 46.2C35.7 45.9 37.2 45.8 38.5 46.3C38.8 46.4 39.1 46.6 39.4 46.7C40.5 47.4 41.4 48.6 42.1 49.7C40.6 49.7 38.9 49.5 37.6 49ZM45.4 43.5C44.1 43.7 42.7 43.3 41.6 42.8C41.5 42.7 41.4 42.7 41.3 42.6C42.3 41.7 43.6 40.8 45 40.6C46.4 40.4 48.2 41 49.6 41.7C48.3 42.5 46.8 43.3 45.4 43.5ZM49.2 34.1C48.2 35.2 46.7 35.8 45.4 36C45.4 35.7 45.5 35.5 45.5 35.2C45.5 35.1 45.6 35 45.6 34.9C45.8 33.9 46.2 33 46.9 32.2C47.1 31.9 47.4 31.7 47.7 31.5L48.5 31.1C48.5 31.1 48.6 31.1 48.7 31C49.5 30.6 50.4 30.4 51.3 30.2C50.9 31.5 50.3 33 49.2 34.1ZM20.8 30.7C20.9 30.8 21 30.8 21.1 30.8H23.4C23.5 30.8 23.6 30.8 23.8 30.7C23.9 30.6 24 30.5 24 30.4L26.5 18.7C26.5 18.6 26.5 18.5 26.4 18.4C26.3 18.3 26.2 18.3 26.1 18.3H23.8C23.7 18.3 23.6 18.3 23.6 18.3C23.5 18.3 23.5 18.4 23.4 18.4L18.6 21.6C18.5 21.7 18.4 21.8 18.3 21.9C18.3 22 18.3 22.1 18.3 22.3L19.1 23.8C19.2 23.9 19.2 24 19.4 24C19.5 24 19.6 24 19.8 23.9L22.6 22.1L20.8 30.5C20.7 30.5 20.7 30.6 20.8 30.7ZM36.2 18.6C35.5 18.2 34.6 18 33.6 18C32.5 18 31.6 18.2 30.8 18.6C30 19 29.4 19.5 28.9 20.2C28.4 20.9 28 21.7 27.8 22.7C27.7 23 27.6 23.4 27.5 23.8C27.4 24.2 27.3 24.6 27.2 25C27.1 25.4 27.1 25.8 27 26.1C26.9 27.1 26.9 27.9 27.2 28.6C27.5 29.3 28 29.9 28.7 30.2C29.4 30.6 30.3 30.8 31.3 30.8C32.4 30.8 33.4 30.6 34.2 30.2C35 29.8 35.6 29.3 36.1 28.6C36.6 27.9 37 27 37.2 26.1C37.3 25.8 37.4 25.4 37.5 25C37.6 24.6 37.7 24.2 37.8 23.8C37.9 23.4 37.9 23 38 22.7C38.2 21.7 38.1 20.9 37.8 20.2C37.4 19.6 36.9 19 36.2 18.6ZM34.6 22.9C34.6 23.2 34.5 23.6 34.4 24C34.3 24.4 34.2 24.8 34.2 25.1C34.1 25.5 34 25.8 33.9 26.2C33.7 26.9 33.4 27.5 33.1 27.9C32.7 28.3 32.2 28.5 31.6 28.5C31 28.5 30.6 28.3 30.4 27.9C30.2 27.5 30.2 27 30.3 26.2C30.4 25.9 30.4 25.5 30.5 25.1C30.6 24.7 30.7 24.3 30.7 24C30.8 23.6 30.9 23.3 31 22.9C31.2 22.2 31.5 21.6 31.8 21.2C32.2 20.8 32.7 20.6 33.3 20.6C33.9 20.6 34.3 20.8 34.5 21.2C34.7 21.6 34.8 22.1 34.6 22.9Z" fill="#FF9000"/>
</svg>
