<svg width="51" height="51" viewBox="0 0 51 51" fill="none" xmlns="http://www.w3.org/2000/svg">
<path fill-rule="evenodd" clip-rule="evenodd" d="M4.49999 30.45L11.1 37.0499V42.65L1.69999 33.25C-0.600009 30.95 -0.600009 27.15 1.69999 24.85L26.5 -0.0500488H50.9V22.35C50.4 21.95 49.8 21.65 49.2 21.35C48.5 20.95 47.7 20.65 46.9 20.45V3.94995H28.1L4.49999 27.65C3.69999 28.45 3.69999 29.65 4.49999 30.45ZM36.6 12.35C36.6 13.45 37.5 14.35 38.6 14.35C39.7 14.35 40.6 13.45 40.6 12.35C40.6 11.25 39.7 10.35 38.6 10.35C37.5 10.35 36.6 11.25 36.6 12.35ZM50.9 29.85V44.95C50.9 46.85 49.7 48.45 47.5 49.5499C45.7 50.45 43.4 50.95 40.9 50.95C38.5 50.95 36.2 50.45 34.4 49.5499C33.9 49.25 33.4 48.95 33 48.65C32.6 48.95 32.1 49.25 31.6 49.5499C29.8 50.45 27.5 50.95 25.1 50.95C22.7 50.95 20.4 50.45 18.6 49.5499C16.4 48.45 15.2 46.85 15.2 44.95V37.15V37.0499C15.2 35.1499 16.4 33.5499 18.6 32.45C20.4 31.55 22.7 31.05 25.1 31.05C27.3 31.05 29.4 31.45 31.1 32.25V29.75C31.1 29.65 31.1 29.55 31.1 29.45C31.1 27.55 32.3 25.95 34.5 24.85C36.3 23.95 38.6 23.45 41 23.45C43.4 23.45 45.7 23.95 47.5 24.85C49.7 25.95 50.9 27.55 50.9 29.45C50.9 29.65 50.9 29.75 50.9 29.85ZM35 29.55C35 29.65 35.2 30.05 36.2 30.55C37.4 31.15 39.1 31.55 40.9 31.55C42.7 31.55 44.4 31.25 45.6 30.55C46.6 30.05 46.8 29.55 46.8 29.55C46.8 29.45 46.6 29.05 45.6 28.55C44.4 27.95 42.7 27.55 40.9 27.55C39.1 27.55 37.4 27.85 36.2 28.55C35.2 29.05 35 29.45 35 29.55ZM19 37.15C19 37.25 19.2 37.65 20.2 38.15C21.4 38.75 23.1 39.15 24.9 39.15C26.7 39.15 28.5 38.8499 29.7 38.25C30.7 37.75 30.9 37.3499 30.9 37.25C30.9 37.15 30.6 36.65 29.6 36.15C28.4 35.55 26.7 35.15 24.9 35.15C23.1 35.15 21.4 35.45 20.2 36.15C19.2 36.55 19 37.05 19 37.15ZM31 44.95V41.95C29.4 42.65 27.3 43.0499 25 43.0499C22.8 43.0499 20.7 42.65 19 41.95V44.95C19 45.0499 19.2 45.45 20.2 45.95C21.4 46.5499 23.1 46.95 24.9 46.95C26.7 46.95 28.4 46.65 29.6 45.95C30.8 45.5499 31 45.0499 31 44.95ZM46.9 44.95V41.95C45.2 42.65 43.1 43.0499 40.9 43.0499C38.7 43.0499 36.6 42.65 34.9 41.95V44.95C34.9 45.0499 35.1 45.45 36.1 45.95C37.3 46.5499 39 46.95 40.8 46.95C42.6 46.95 44.3 46.65 45.5 45.95C46.7 45.5499 46.9 45.0499 46.9 44.95ZM46.9 37.15V34.45C45.2 35.15 43.1 35.5499 40.9 35.5499C38.7 35.5499 36.6 35.15 34.9 34.45V37.15C34.9 37.25 35.1 37.65 36.1 38.15C37.3 38.75 39 39.15 40.8 39.15C42.6 39.15 44.3 38.85 45.5 38.15C46.7 37.65 46.9 37.15 46.9 37.15Z" fill="#FF9000"/>
</svg>
