<svg width="54" height="54" viewBox="0 0 54 54" fill="none" xmlns="http://www.w3.org/2000/svg">
<path fill-rule="evenodd" clip-rule="evenodd" d="M42.9 30.4L46.9 27.6L44.8 21.1L47.2 14.5L41.4 10.6L39.3 4.2H32.7L27.2 0L21.7 4.1H14.8L12.9 10.6L7.4 14.4L9.5 21L7.2 27.5L11.4 30.4L0 41.6L9.9 44.1L12.4 54L25.6 40.8L27.1 42L28.5 40.9L41.6 54L44.1 44.1L54 41.6L42.9 30.4ZM12.4 16.1L16.6 13.2L18 8.4H23.2L27.2 5.4L31.2 8.6H36.2L37.8 13.5L42.1 16.4L40.3 21L41.9 25.9L37.8 28.7L36.3 33.7H31.2L27.1 36.7L23 33.6H18L16.4 28.7L12.2 25.8L14 21L12.4 16.1ZM14.7 45.7L13.4 40.6L8.3 39.3L13.7 34L15 37.9H21.7L22.2 38.3L14.7 45.7ZM40.6 40.6L39.3 45.7L32 38.4L32.6 38H39.5L40.6 34.1L45.7 39.3L40.6 40.6ZM27.2 31.7C33.1 31.7 37.9 26.9 37.9 21C37.9 15.1 33.1 10.3 27.2 10.3C21.3 10.3 16.5 15.1 16.5 21C16.5 27 21.3 31.7 27.2 31.7ZM27.2 14.6C30.8 14.6 33.7 17.5 33.7 21.1C33.7 24.7 30.8 27.6 27.2 27.6C23.6 27.6 20.7 24.7 20.7 21.1C20.7 17.5 23.6 14.6 27.2 14.6Z" fill="#FF9000"/>
</svg>
