<svg id="phone" width="20" height="20" viewBox="0 0 20 20" fill="none" xmlns="http://www.w3.org/2000/svg">
<path fill-rule="evenodd" clip-rule="evenodd" d="M7.2922 11.7492C8.9922 13.4492 10.9922 15.0492 11.7922 14.2492C12.8922 13.1492 13.5922 12.1492 16.0922 14.1492C18.5922 16.1492 16.6922 17.4492 15.5922 18.5492C14.2922 19.8492 9.5922 18.6492 4.9922 14.0492C0.392198 9.54917 -0.807802 4.84917 0.492198 3.64917C1.5922 2.54917 2.8922 0.649169 4.8922 3.14917C6.8922 5.54917 5.8922 6.24917 4.7922 7.44917C3.9922 8.14917 5.5922 10.0492 7.2922 11.7492ZM9.7922 3.74917C9.7922 3.74917 9.2922 3.64917 8.8922 4.04917C8.4922 4.44917 8.4922 5.04917 8.8922 5.44917C9.0922 5.64917 9.4922 5.74917 9.4922 5.74917C10.0922 5.74917 10.9922 5.94917 12.0922 7.04917C13.0922 8.04917 13.2922 9.04917 13.3922 9.64917C13.3922 9.64917 13.3922 9.94917 13.6922 10.2492C14.0922 10.6492 14.6922 10.6492 15.0922 10.2492C15.4922 9.84917 15.3922 9.34917 15.3922 9.34917C15.1922 8.04917 14.5922 6.74917 13.4922 5.64917C12.3922 4.54917 10.9922 3.94917 9.7922 3.74917ZM14.5922 4.44917C16.4922 6.34917 17.2922 8.44917 16.9922 10.1492C16.9922 10.1492 16.8922 10.6492 17.2922 11.0492C17.6922 11.4492 18.2922 11.4492 18.6922 11.0492C18.8922 10.8492 18.9922 10.4492 18.9922 10.4492C19.1922 8.94917 18.8922 5.94917 15.9922 3.04917C13.0922 0.149169 10.0922 -0.150831 8.5922 0.0491695C8.5922 0.0491695 8.1922 0.149169 7.9922 0.349169C7.5922 0.749169 7.5922 1.34917 7.9922 1.74917C8.2922 2.14917 8.8922 2.04917 8.8922 2.04917C10.5922 1.84917 12.6922 2.64917 14.5922 4.44917Z" fill="white"/>
</svg>
