<svg width="40" height="40" viewBox="0 0 40 40" fill="none" xmlns="http://www.w3.org/2000/svg">
<rect width="40" height="40" rx="4" fill="#0B8FFF"/>
<path fill-rule="evenodd" clip-rule="evenodd" d="M9.67981 19.5266L14.5798 21.3266L16.4798 27.3266C16.5798 27.7266 17.0798 27.8266 17.3798 27.6266L20.1798 25.4266C20.4798 25.2266 20.8798 25.2266 21.1798 25.4266L26.1798 28.9266C26.4798 29.1266 26.9798 29.0266 27.0798 28.6266L30.6798 11.6266C30.7798 11.2266 30.3798 10.8266 29.8798 11.0266L9.67981 18.5266C9.17981 18.6266 9.17981 19.3266 9.67981 19.5266ZM16.1798 20.4266L25.7798 14.6266C25.9798 14.5266 26.1798 14.7266 25.9798 14.9266L17.9798 22.1266C17.6798 22.4266 17.4798 22.7266 17.4798 23.1266L17.1798 25.1266C17.1798 25.4266 16.7798 25.4266 16.6798 25.1266L15.6798 21.5266C15.6798 21.0266 15.7798 20.6266 16.1798 20.4266Z" fill="white"/>
</svg>
