<svg width="55" height="45" viewBox="0 0 55 45" fill="none" xmlns="http://www.w3.org/2000/svg">
<path fill-rule="evenodd" clip-rule="evenodd" d="M22.8 4.3H0V0H22.8V4.3ZM18.5 8.5H0V12.8H18.5V8.5ZM14.2 17H0V21.3H14.2V17ZM55 40.7H46C45.1 43.2 42.8 45 40 45C37.2 45 34.8 43.2 33.9 40.7H20.6C19.7 43.2 17.3 45 14.5 45C11.7 45 9.3 43.2 8.4 40.7H6.4C2.8 40.7 0 37.8 0 34.3V25.5H4.3V34.3C4.3 35.5 5.3 36.4 6.4 36.4H8.4C9.3 33.9 11.7 32.1 14.5 32.1C17.3 32.1 19.7 33.9 20.6 36.4H33.5V6.4C33.5 5.2 32.5 4.3 31.4 4.3H27.1V0H31.4C35 0 37.8 2.9 37.8 6.4V10.7H42.1C44.1 10.7 46 11.6 47.2 13.2L53.2 21.1C54.3 22.6 54.9 24.4 54.9 26.2V40.7H55ZM37.8 14.9V22.9H49.3L43.9 15.8C43.5 15.3 42.9 15 42.2 15H37.8V14.9ZM16.7 38.6C16.7 37.4 15.7 36.5 14.6 36.5C13.5 36.5 12.5 37.5 12.5 38.6C12.5 39.8 13.5 40.7 14.6 40.7C15.7 40.7 16.7 39.8 16.7 38.6ZM42.1 38.6C42.1 37.4 41.1 36.5 40 36.5C38.8 36.5 37.9 37.5 37.9 38.6C37.9 39.8 38.9 40.7 40 40.7C41.1 40.7 42.1 39.8 42.1 38.6ZM50.7 36.5V27.1H37.8V32.6C38.5 32.4 39.2 32.2 39.9 32.2C42.7 32.2 45.1 34 46 36.5H50.7Z" fill="#FF9000"/>
</svg>
