<svg width="53" height="61" viewBox="0 0 53 61" fill="none" xmlns="http://www.w3.org/2000/svg">
<path fill-rule="evenodd" clip-rule="evenodd" d="M7.1 56.1C5.8 56.1 4.7 55 4.7 53.7V11.9C4.7 10.6 5.8 9.5 7.1 9.5H11V18.9H34.7V9.5H38.5C39.8 9.5 40.9 10.6 40.9 11.9V38.3L45.6 33V11.9C45.6 8 42.4 4.8 38.5 4.8H29.6C28.6 2 25.9 0 22.8 0C19.7 0 17.1 2 16.1 4.8H7.1C3.2 4.8 0 8 0 11.9V53.8C0 57.7 3.2 60.9 7.1 60.9H26.4L21.4 56.1H7.1ZM20.5 9.5V7.1C20.5 5.8 21.6 4.7 22.9 4.7C24.2 4.7 25.3 5.8 25.3 7.1V9.5H30V14.1H15.7V9.5H20.5ZM36.1 28.4H18.9V23.6H36.1V28.4ZM14.2 23.7V28.5H9.5V23.7H14.2ZM19.1 37.9V33.1H36.1V37.9H19.1ZM14.3 37.9H9.5V33.1H14.4V37.9H14.3ZM9.5 42.7H14.2V47.5H9.5V42.7ZM53 38.9L33.3 61L20.5 48.7L23.8 45.3L33.1 54.2L49.5 35.8L53 38.9Z" fill="#FF9000"/>
</svg>
