<svg width="23" height="31" viewBox="0 0 23 31" fill="none" xmlns="http://www.w3.org/2000/svg">
<path fill-rule="evenodd" clip-rule="evenodd" d="M21.3 31H1.2C0.5 31 0 30.5 0 29.8V1.2C0 0.5 0.5 0 1.2 0H16H16.1C16.1 0 16.2 0 16.2 0.1L16.3 0.2L22.3 7C22.4 7.1 22.4 7.3 22.4 7.4C22.4 7.4 22.4 7.4 22.4 7.5V29.8C22.6 30.5 22 31 21.3 31ZM16 29.5H17.7V26.5H20.4V25.1H17.7V23.4H20.5V22H16V29.5ZM8.4 29.5C8.8 29.6 9.4 29.6 10.3 29.6C11.7 29.6 12.9 29.3 13.7 28.6C14.4 28 14.9 27 14.9 25.6C14.9 24.3 14.4 23.4 13.6 22.8C12.9 22.3 12 22 10.6 22C9.8 22 9 22.1 8.3 22.2V29.5H8.4ZM2 29.5H3.7V26.9C3.9 26.9 4.1 26.9 4.3 26.9C5.3 26.9 6.1 26.7 6.7 26.1C7.1 25.7 7.4 25.1 7.4 24.3C7.4 23.6 7.1 23 6.6 22.6C6.1 22.2 5.4 22 4.3 22C3.3 22 2.6 22.1 2 22.2V29.5ZM21.3 8H16C15.7 8 15.4 7.7 15.4 7.4V1.2H1.2V20.6H21.3V8ZM3.1 16.9C3.8 16.1 4.6 15.5 5.6 15C6 13.4 6.9 10 7.2 8.4C6.7 7.8 6.4 7.5 6.4 7.5C5.6 6.6 5.3 5.8 5.5 5.2C5.7 4.6 6.2 4.3 6.5 4.2C7 4.1 7.4 4.2 7.8 4.5C8.3 5 8.4 6.1 8.3 7.7C8.3 7.8 8.3 7.9 8.3 8C9.4 9.1 11.6 11 14.2 13C14.6 13 15 13 15.4 13C16.7 13 17.6 13.1 17.6 13.1C17.7 13.1 18.8 13.2 19.4 13.9C19.7 14.2 19.8 14.7 19.7 15.1V15.2C19.5 16 18.9 16.5 18.1 16.5C17.6 16.5 17.1 16.3 17 16.2C15.9 15.5 14.9 14.8 13.8 14C11.7 14.1 8.7 14.5 6.4 15.6L6.2 16.2C5.5 18.7 4.3 18.9 3.8 18.9C3.7 18.9 3.6 18.9 3.6 18.9H3.5C3.2 18.8 3 18.6 2.9 18.4C2.7 17.8 3 17 3.1 16.9ZM17.5 15.4C17.6 15.4 17.8 15.5 18.1 15.5C18.3 15.5 18.6 15.4 18.8 14.9C18.8 14.7 18.8 14.5 18.7 14.4C18.4 14.1 17.7 14 17.5 14C17.5 14 16.6 13.9 15.3 13.9C16 14.4 16.8 14.9 17.5 15.4ZM7.1 5.2C7 5.1 6.9 5.1 6.7 5.1C6.7 5.1 6.4 5.2 6.3 5.4C6.3 5.5 6.2 6 7 6.9C7 6.9 7.1 7 7.3 7.2C7.4 6 7.3 5.4 7.1 5.2ZM12.7 13.1C10.7 11.6 9.1 10.1 8 9.1C7.7 10.6 7.1 12.8 6.7 14.4V14.5C8.6 13.6 10.8 13.3 12.7 13.1ZM3.8 18C4 18 4.8 17.9 5.3 16.2C4.8 16.6 4.3 16.9 3.9 17.4C3.8 17.6 3.7 17.9 3.8 18ZM5.7 24.4C5.7 25.2 5.2 25.6 4.3 25.6C4.1 25.6 3.9 25.6 3.7 25.6V23.4C3.8 23.4 4.1 23.3 4.4 23.3C5.2 23.3 5.7 23.7 5.7 24.4ZM13.1 25.7C13.1 27.5 12.1 28.3 10.6 28.3C10.4 28.3 10.2 28.3 10 28.3V23.5C10.1 23.5 10.4 23.4 10.8 23.4C12.3 23.3 13.2 24.2 13.1 25.7Z" fill="#B02A1F"/>
</svg>
