<svg width="18" height="18" viewBox="0 0 18 18" fill="none" xmlns="http://www.w3.org/2000/svg">
<path d="M1.36443 0.100886C0.590448 0.150759 0 0.800541 0 1.57517V9H9.01116V1.57517C9.01116 0.80054 8.42071 0.150759 7.64673 0.100886C6.60832 0.0339736 5.56092 0 4.50558 0C3.45024 0 2.40284 0.0339736 1.36443 0.100886Z" fill="white"/>
<path d="M16.3986 4.08245C16.2265 3.43878 15.637 3 14.9699 3H12.0149C11.1854 3 10.513 3.67157 10.513 4.5V13.9013C10.9548 13.6461 11.4678 13.5 12.0149 13.5C13.6738 13.5 15.0186 14.8431 15.0186 16.5H16.5205C17.3499 16.5 18.0247 15.8282 17.9993 15.0001C17.8836 11.2357 17.334 7.58042 16.3986 4.08245Z" fill="white"/>
<path d="M13.5167 16.5C13.5167 17.3284 12.8443 18 12.0149 18C11.1854 18 10.513 17.3284 10.513 16.5C10.513 15.6716 11.1854 15 12.0149 15C12.8443 15 13.5167 15.6716 13.5167 16.5Z" fill="white"/>
<path d="M0 15V10.5H9.01116V15C9.01116 15.8284 8.33875 16.5 7.5093 16.5C7.5093 14.8431 6.16449 13.5 4.50558 13.5C2.84667 13.5 1.50186 14.8431 1.50186 16.5C0.672406 16.5 0 15.8284 0 15Z" fill="white"/>
<path d="M6.00744 16.5C6.00744 17.3284 5.33503 18 4.50558 18C3.67613 18 3.00372 17.3284 3.00372 16.5C3.00372 15.6716 3.67613 15 4.50558 15C5.33503 15 6.00744 15.6716 6.00744 16.5Z" fill="white"/>
</svg>
