<svg width="18" height="18" viewBox="0 0 18 18" fill="none" xmlns="http://www.w3.org/2000/svg">
<path d="M12 0C10.732 0 9.55 0.832014 9.181 2.00201L1 2C0.448 2 0 2.448 0 3C0 3.552 0.448 4 1 4L9.181 3.99902C9.629 5.22402 10.732 6 12 6C13.268 6 14.382 5.22203 14.838 3.99103L17 4C17.552 4 18 3.552 18 3C18 2.448 17.552 2 17 2H14.83C14.348 0.781 13.268 0 12 0ZM6 6C4.682 6 3.57899 6.82001 3.17599 8.00201C3.03499 8.01101 1 8 1 8C0.448 8 0 8.448 0 9C0 9.552 0.448 10 1 10C1 10 3.05199 9.979 3.17999 9.992C3.58299 11.174 4.682 12 6 12C7.268 12 8.35401 11.223 8.82901 10.003L17 10C17.552 10 18 9.552 18 9C18 8.448 17.552 8 17 8L8.82401 7.99103C8.38601 6.79803 7.268 6 6 6ZM12 12C10.732 12 9.57199 12.835 9.17999 13.99L1 14C0.448 14 0 14.448 0 15C0 15.552 0.448 16 1 16L9.16599 16.001C9.57998 17.186 10.732 18 12 18C13.268 18 14.361 17.207 14.842 16.001L17 16C17.552 16 18 15.552 18 15C18 14.448 17.552 14 17 14L14.833 13.994C14.402 12.811 13.268 12 12 12Z" fill="white"/>
</svg>
