<svg width="16" height="19" viewBox="0 0 16 19" fill="none" xmlns="http://www.w3.org/2000/svg">
<path fill-rule="evenodd" clip-rule="evenodd" d="M13.315 2.71429H13.3333C14.8061 2.71429 16 3.92951 16 5.42857V13.5714C16 14.8362 15.1501 15.8989 14 16.2002V8.14286C14 6.26903 12.5076 4.75 10.6667 4.75H2.75066C3.04668 3.57931 4.09075 2.71429 5.33332 2.71429H5.35162C5.51744 1.18752 6.78913 0 8.33332 0H10.3333C11.8775 0 13.1492 1.18752 13.315 2.71429ZM11.3333 4.07143V3.05357C11.3333 2.49142 10.8856 2.03571 10.3333 2.03571H8.33332C7.78103 2.03571 7.33332 2.49142 7.33332 3.05357V4.07143H11.3333Z" fill="white"/>
<path fill-rule="evenodd" clip-rule="evenodd" d="M1.33334 6.78571C0.596955 6.78571 0 7.39333 0 8.14286V17.6429C0 18.3924 0.596955 19 1.33334 19H10.6667C11.4031 19 12 18.3924 12 17.6429V8.14286C12 7.39333 11.4031 6.78571 10.6667 6.78571H1.33334ZM3.66667 10.1786C3.11439 10.1786 2.66667 10.6343 2.66667 11.1964C2.66667 11.7586 3.11439 12.2143 3.66667 12.2143H8.33335C8.88563 12.2143 9.33335 11.7586 9.33335 11.1964C9.33335 10.6343 8.88563 10.1786 8.33335 10.1786H3.66667ZM2.66667 14.5893C2.66667 14.0271 3.11439 13.5714 3.66667 13.5714H8.33335C8.88563 13.5714 9.33335 14.0271 9.33335 14.5893C9.33335 15.1514 8.88563 15.6071 8.33335 15.6071H3.66667C3.11439 15.6071 2.66667 15.1514 2.66667 14.5893Z" fill="white"/>
</svg>
