<svg width="18" height="15" viewBox="0 0 18 15" fill="none" xmlns="http://www.w3.org/2000/svg">
<path fill-rule="evenodd" clip-rule="evenodd" d="M0.964286 0C0.431725 0 0 0.419733 0 0.9375C0 1.45527 0.431725 1.875 0.964285 1.875H1.28571V13.125H0.964286C0.431725 13.125 0 13.5447 0 14.0625C0 14.5803 0.431725 15 0.964286 15H2.89286C3.42542 15 3.85714 14.5803 3.85714 14.0625V12.1875C3.85714 11.6697 4.28887 11.25 4.82143 11.25H6.75C7.28256 11.25 7.71429 11.6697 7.71429 12.1875V14.0625C7.71429 14.5803 8.14601 15 8.67857 15H9.32143C9.85399 15 10.2857 14.5803 10.2857 14.0625V1.875H10.6071C11.1397 1.875 11.5714 1.45527 11.5714 0.9375C11.5714 0.419733 11.1397 0 10.6071 0H0.964286ZM3.21429 4.375C3.21429 4.02982 3.5021 3.75 3.85714 3.75H4.5C4.85504 3.75 5.14286 4.02982 5.14286 4.375V5C5.14286 5.34518 4.85504 5.625 4.5 5.625H3.85714C3.5021 5.625 3.21429 5.34518 3.21429 5V4.375ZM3.85714 6.875C3.5021 6.875 3.21429 7.15482 3.21429 7.5V8.125C3.21429 8.47018 3.5021 8.75 3.85714 8.75H4.5C4.85504 8.75 5.14286 8.47018 5.14286 8.125V7.5C5.14286 7.15482 4.85504 6.875 4.5 6.875H3.85714ZM6.42857 4.375C6.42857 4.02982 6.71639 3.75 7.07143 3.75H7.71429C8.06933 3.75 8.35714 4.02982 8.35714 4.375V5C8.35714 5.34518 8.06933 5.625 7.71429 5.625H7.07143C6.71639 5.625 6.42857 5.34518 6.42857 5V4.375ZM7.07143 6.875C6.71639 6.875 6.42857 7.15482 6.42857 7.5V8.125C6.42857 8.47018 6.71639 8.75 7.07143 8.75H7.71429C8.06933 8.75 8.35714 8.47018 8.35714 8.125V7.5C8.35714 7.15482 8.06933 6.875 7.71429 6.875H7.07143Z" fill="white"/>
<path fill-rule="evenodd" clip-rule="evenodd" d="M13.5 5C12.7899 5 12.2143 5.55964 12.2143 6.25V13.75C12.2143 14.4404 12.7899 15 13.5 15H17.0357C17.5683 15 18 14.5803 18 14.0625C18 13.5447 17.5683 13.125 17.0357 13.125H16.7143V6.875H17.0357C17.5683 6.875 18 6.45527 18 5.9375C18 5.41973 17.5683 5 17.0357 5H13.5ZM14.1429 6.875H14.7857C15.1408 6.875 15.4286 7.15482 15.4286 7.5V8.125C15.4286 8.47018 15.1408 8.75 14.7857 8.75H14.1429C13.7878 8.75 13.5 8.47018 13.5 8.125V7.5C13.5 7.15482 13.7878 6.875 14.1429 6.875ZM14.1429 10C13.7878 10 13.5 10.2798 13.5 10.625V11.25C13.5 11.5952 13.7878 11.875 14.1429 11.875H14.7857C15.1408 11.875 15.4286 11.5952 15.4286 11.25V10.625C15.4286 10.2798 15.1408 10 14.7857 10H14.1429Z" fill="white"/>
</svg>
