<svg width="18" height="21" viewBox="0 0 18 21" fill="none" xmlns="http://www.w3.org/2000/svg">
<path fill-rule="evenodd" clip-rule="evenodd" d="M8.44184 0.153716C8.78771 -0.0512388 9.21229 -0.0512388 9.55816 0.153716L11.4285 1.26205C11.9679 1.58173 12.1553 2.29439 11.8471 2.85383C11.5388 3.41327 10.8516 3.60763 10.3122 3.28795L9 2.51038L7.68784 3.28795C7.14839 3.60763 6.46118 3.41327 6.15291 2.85383C5.84465 2.29439 6.03207 1.58173 6.57153 1.26205L8.44184 0.153716ZM3.97677 4.14339C4.28503 4.70283 4.09761 5.41549 3.55816 5.73517L3.39251 5.83333L3.55816 5.93149C4.09761 6.25117 4.28504 6.96384 3.97677 7.52327C3.66851 8.08271 2.9813 8.27707 2.44184 7.9574L2.24829 7.84269C2.21581 8.45683 1.72531 8.94444 1.125 8.94444C0.50368 8.94444 0 8.42211 0 7.77778V5.83333C0 5.41467 0.216322 5.0281 0.566844 4.82038L2.44184 3.70927C2.9813 3.38959 3.66851 3.58396 3.97677 4.14339ZM14.0232 4.14339C14.3315 3.58396 15.0187 3.38959 15.5582 3.70927L17.4332 4.82038C17.7837 5.0281 18 5.41467 18 5.83333V7.77778C18 8.42211 17.4963 8.94444 16.875 8.94444C16.2747 8.94444 15.7842 8.45683 15.7517 7.8427L15.5582 7.9574C15.0187 8.27707 14.3315 8.08271 14.0232 7.52327C13.715 6.96384 13.9024 6.25117 14.4418 5.93149L14.6075 5.83333L14.4418 5.73517C13.9024 5.41549 13.715 4.70283 14.0232 4.14339ZM6.15291 8.81284C6.46117 8.2534 7.14839 8.05904 7.68784 8.37872L9 9.15629L10.3122 8.37872C10.8516 8.05904 11.5388 8.2534 11.8471 8.81284C12.1553 9.37227 11.9679 10.0849 11.4285 10.4046L10.125 11.177V12.4444C10.125 13.0888 9.62132 13.6111 9 13.6111C8.37868 13.6111 7.875 13.0888 7.875 12.4444V11.177L6.57153 10.4046C6.03207 10.0849 5.84465 9.37228 6.15291 8.81284ZM1.125 12.0556C1.74632 12.0556 2.25 12.5779 2.25 13.2222V14.4896L3.55816 15.2648C4.09761 15.5845 4.28504 16.2972 3.97677 16.8566C3.66851 17.416 2.9813 17.6104 2.44184 17.2907L0.566844 16.1796C0.216322 15.9719 0 15.5853 0 15.1667V13.2222C0 12.5779 0.50368 12.0556 1.125 12.0556ZM16.875 12.0556C17.4963 12.0556 18 12.5779 18 13.2222V15.1667C18 15.5853 17.7837 15.9719 17.4332 16.1796L15.5582 17.2907C15.0187 17.6104 14.3315 17.416 14.0232 16.8566C13.715 16.2972 13.9024 15.5845 14.4418 15.2648L15.75 14.4896V13.2222C15.75 12.5779 16.2537 12.0556 16.875 12.0556ZM10.1233 17.824L10.3122 17.7121C10.8516 17.3924 11.5388 17.5867 11.8471 18.1462C12.1553 18.7056 11.9679 19.4183 11.4285 19.738L9.55816 20.8463C9.21229 21.0512 8.7877 21.0512 8.44184 20.8463L6.57153 19.7379C6.03207 19.4183 5.84465 18.7056 6.15291 18.1462C6.46117 17.5867 7.14839 17.3924 7.68784 17.712L7.87671 17.824C7.90919 17.2098 8.39968 16.7222 9 16.7222C9.60032 16.7222 10.0908 17.2098 10.1233 17.824Z" fill="white"/>
</svg>
