<svg width="16" height="22" viewBox="0 0 16 22" fill="none" xmlns="http://www.w3.org/2000/svg">
<path fill-rule="evenodd" clip-rule="evenodd" d="M3.2 0C1.43269 0 0 1.4071 0 3.14286V18.8571C0 20.5929 1.43269 22 3.2 22H12.8C14.5673 22 16 20.5929 16 18.8571V3.14286C16 1.40711 14.5673 0 12.8 0H3.2ZM4.4 9.42857C3.73726 9.42857 3.2 9.95624 3.2 10.6071C3.2 11.258 3.73726 11.7857 4.4 11.7857C5.06274 11.7857 5.6 11.258 5.6 10.6071C5.6 9.95624 5.06274 9.42857 4.4 9.42857ZM3.2 4.32143C3.2 3.67052 3.73726 3.14286 4.4 3.14286H11.6C12.2627 3.14286 12.8 3.67052 12.8 4.32143C12.8 4.97234 12.2627 5.5 11.6 5.5H4.4C3.73726 5.5 3.2 4.97234 3.2 4.32143ZM4.4 16.5C3.73726 16.5 3.2 17.0277 3.2 17.6786C3.2 18.3295 3.73726 18.8571 4.4 18.8571C5.06274 18.8571 5.6 18.3295 5.6 17.6786C5.6 17.0277 5.06274 16.5 4.4 16.5ZM3.2 14.1429C3.2 13.492 3.73726 12.9643 4.4 12.9643C5.06274 12.9643 5.6 13.492 5.6 14.1429C5.6 14.7938 5.06274 15.3214 4.4 15.3214C3.73726 15.3214 3.2 14.7938 3.2 14.1429ZM11.6 9.42857C10.9373 9.42857 10.4 9.95624 10.4 10.6071C10.4 11.258 10.9373 11.7857 11.6 11.7857C12.2627 11.7857 12.8 11.258 12.8 10.6071C12.8 9.95624 12.2627 9.42857 11.6 9.42857ZM10.4 14.1429C10.4 13.492 10.9373 12.9643 11.6 12.9643C12.2627 12.9643 12.8 13.492 12.8 14.1429V17.6786C12.8 18.3295 12.2627 18.8571 11.6 18.8571C10.9373 18.8571 10.4 18.3295 10.4 17.6786V14.1429ZM8 9.42857C7.33726 9.42857 6.8 9.95624 6.8 10.6071C6.8 11.258 7.33726 11.7857 8 11.7857C8.66274 11.7857 9.2 11.258 9.2 10.6071C9.2 9.95624 8.66274 9.42857 8 9.42857ZM6.8 17.6786C6.8 17.0277 7.33726 16.5 8 16.5C8.66274 16.5 9.2 17.0277 9.2 17.6786C9.2 18.3295 8.66274 18.8571 8 18.8571C7.33726 18.8571 6.8 18.3295 6.8 17.6786ZM8 12.9643C7.33726 12.9643 6.8 13.492 6.8 14.1429C6.8 14.7938 7.33726 15.3214 8 15.3214C8.66274 15.3214 9.2 14.7938 9.2 14.1429C9.2 13.492 8.66274 12.9643 8 12.9643Z" fill="white"/>
</svg>
