<svg width="16" height="16" viewBox="0 0 16 16" fill="none" xmlns="http://www.w3.org/2000/svg">
<path fill-rule="evenodd" clip-rule="evenodd" d="M15.9994 4C15.9994 6.20914 14.2086 8 11.9996 8C11.9746 8 11.9497 7.99977 11.9249 7.99932C10.7946 7.97862 9.53297 8.15104 8.83895 9.04339L4.11978 15.1111C3.68358 15.672 3.01288 16 2.30239 16C1.03081 16 0 14.9691 0 13.6975C0 12.987 0.328028 12.3163 0.888858 11.8801L6.95636 7.16073C7.84867 6.46669 8.02109 5.20497 8.00039 4.07468C7.99994 4.04984 7.99971 4.02495 7.99971 4C7.99971 1.79086 9.79051 0 11.9996 0C12.3871 0 12.7617 0.0551067 13.1161 0.157911C13.4872 0.265576 13.5608 0.725902 13.2876 0.999145L10.9705 3.31639C10.7667 3.52017 10.7452 3.84506 10.9336 4.0631C11.2435 4.42167 11.5791 4.75734 11.9377 5.06723C12.1558 5.25568 12.4807 5.23412 12.6845 5.03027L15.0005 2.71298C15.2738 2.43959 15.7342 2.51329 15.8418 2.88454C15.9444 3.23859 15.9994 3.61287 15.9994 4ZM3.14274 13.7143C3.14274 14.1877 2.759 14.5714 2.28563 14.5714C1.81226 14.5714 1.42852 14.1877 1.42852 13.7143C1.42852 13.2409 1.81226 12.8571 2.28563 12.8571C2.759 12.8571 3.14274 13.2409 3.14274 13.7143Z" fill="white"/>
<path d="M11.9996 9.71429C12.3576 9.71429 12.7079 9.68136 13.0476 9.61838L15.2899 11.8608C15.7446 12.3155 16 12.9321 16 13.5751C16 14.914 14.9146 15.9995 13.5757 15.9995C12.9328 15.9995 12.3161 15.744 11.8615 15.2894L8.65036 12.0781L10.1921 10.0959C10.2491 10.0225 10.3733 9.91572 10.6802 9.82985C10.9978 9.74097 11.4099 9.70446 11.8935 9.71332C11.9288 9.71396 11.9642 9.71429 11.9996 9.71429Z" fill="white"/>
<path d="M4.57184 3.42803L6.22398 5.08023C6.20879 5.16496 6.19081 5.24478 6.16993 5.31938C6.08407 5.62629 5.97729 5.75049 5.90393 5.80755L5.2074 6.34932L3.42902 4.57089H1.89137C1.78316 4.57089 1.68423 4.50975 1.63583 4.41295L0.0926683 1.32651C0.0376719 1.21651 0.0592294 1.08366 0.146186 0.996702L0.997782 0.145076C1.08474 0.0581155 1.21758 0.0365571 1.32758 0.0915554L4.41391 1.63478C4.5107 1.68317 4.57184 1.78211 4.57184 1.89033V3.42803Z" fill="white"/>
</svg>
