<svg width="19" height="15" viewBox="0 0 19 15" fill="none" xmlns="http://www.w3.org/2000/svg">
<path d="M-5.20894e-07 2.74984L-1.20206e-07 11.9165C-5.20894e-08 13.4748 1.19167 14.6665 2.75 14.6665L8.25 14.6665L8.25 6.78317L6.14167 8.8915C5.775 9.25817 5.225 9.25817 4.85833 8.8915C4.49167 8.52484 4.49167 7.97484 4.85833 7.60817L8.525 3.94151C8.89167 3.57484 9.44167 3.57484 9.80833 3.94151L13.475 7.60817C13.8417 7.97484 13.8417 8.52484 13.475 8.8915C13.1083 9.25817 12.5583 9.25817 12.1917 8.8915L10.0833 6.78317L10.0833 14.6665L15.5833 14.6665C17.1417 14.6665 18.3333 13.4748 18.3333 11.9165L18.3333 2.74984C18.3333 1.1915 17.1417 -0.00016192 15.5833 -0.000161852L2.75 -0.000161291C1.19167 -0.000161223 -5.89011e-07 1.19151 -5.20894e-07 2.74984Z" fill="white"/>
</svg>
